<?xml version="1.0" standalone="no"?>
<!DOCTYPE svg PUBLIC "-//W3C//DTD SVG 20010904//EN"
 "http://www.w3.org/TR/2001/REC-SVG-20010904/DTD/svg10.dtd">
<svg version="1.0" xmlns="http://www.w3.org/2000/svg"
 viewBox="0 0 500.000000 375.000000"
 preserveAspectRatio="xMidYMid meet">

<g transform="translate(0.000000,375.000000) scale(0.100000,-0.100000)"
fill="#000000" stroke="none">
<path d="M2816 2332 c-8 -15 -20 -55 -27 -89 -22 -104 5 -159 103 -209 25 -13
48 -27 50 -31 1 -5 38 -26 81 -47 42 -21 77 -43 77 -48 0 -6 -7 -7 -16 -4 -9
4 -78 13 -153 21 -75 8 -223 24 -329 35 -106 11 -279 25 -385 30 -212 11 -358
24 -487 45 -47 7 -119 17 -160 20 -41 4 -100 13 -130 20 -30 7 -84 16 -120 20
-77 9 -100 19 -100 45 0 10 -4 22 -10 25 -5 3 -10 15 -10 25 0 12 -5 17 -14
14 -37 -14 -48 -316 -12 -351 8 -8 84 -23 146 -28 50 -5 394 -41 465 -50 37
-4 114 -13 180 -20 28 -3 73 -8 100 -11 28 -3 82 -6 120 -6 39 0 108 -5 155
-12 47 -7 123 -14 170 -15 47 -1 100 -6 118 -12 19 -6 62 -13 95 -15 34 -2 98
-8 142 -13 44 -5 91 -10 105 -11 23 -2 23 -3 -5 -9 -17 -4 15 -7 75 -7 107 0
205 -18 193 -37 -4 -6 11 -8 43 -4 33 5 42 4 29 -2 -19 -9 -19 -10 3 -10 31
-1 27 -12 -15 -41 -134 -89 -502 -375 -529 -409 -11 -15 -8 -47 7 -66 4 -6 13
-42 19 -80 12 -80 26 -121 44 -128 7 -3 38 19 69 48 31 29 89 78 129 108 40
30 89 69 108 86 19 17 99 77 178 133 78 56 142 106 142 110 0 4 5 8 10 8 6 0
34 15 63 34 28 18 73 45 100 60 26 15 47 31 47 36 0 5 14 17 30 25 20 11 33
26 37 46 4 23 10 28 22 23 40 -16 46 -14 64 25 14 32 17 53 11 103 -3 35 -8
75 -9 89 -3 32 -22 69 -35 69 -5 0 -76 32 -157 71 -82 39 -229 109 -328 156
-183 85 -430 216 -440 233 -3 6 -15 14 -25 20 -16 9 -22 6 -34 -18z m704 -622
c0 -5 -9 -14 -20 -20 -17 -9 -20 -8 -20 10 0 13 7 20 20 20 11 0 20 -4 20 -10z"/>
<path d="M2268 1713 c6 -2 18 -2 25 0 6 3 1 5 -13 5 -14 0 -19 -2 -12 -5z"/>
<path d="M3048 1633 c7 -3 16 -2 19 1 4 3 -2 6 -13 5 -11 0 -14 -3 -6 -6z"/>
<path d="M3118 1623 c6 -2 18 -2 25 0 6 3 1 5 -13 5 -14 0 -19 -2 -12 -5z"/>
</g>
</svg>
