<?xml version="1.0" standalone="no"?>
<svg viewBox="0 0 200 200" xmlns="http://www.w3.org/2000/svg">
  <path fill="#efefef" d="M41.8,-60.3C56.9,-55.3,73.8,-48.4,79.4,-36.2C84.9,-24.1,79.1,-6.8,68.7,4.2C58.4,15.3,43.5,20,34,27.4C24.5,34.9,20.3,44.9,10.9,56.5C1.5,68.1,-13.1,81.2,-25.8,80.7C-38.5,80.2,-49.3,66.1,-52.2,51.5C-55.1,36.9,-50.2,21.7,-45.3,10.7C-40.4,-0.3,-35.5,-7.2,-36.7,-21.9C-38,-36.6,-45.3,-59.2,-40.1,-68.7C-35,-78.2,-17.5,-74.6,-2.1,-71.4C13.3,-68.1,26.7,-65.2,41.8,-60.3Z" transform="translate(100 100)" />
</svg>
