<?xml version="1.0" standalone="no"?>
<svg viewBox="0 0 200 200" xmlns="http://www.w3.org/2000/svg">
  <path fill="#efefef" d="M42.5,-67.8C55.2,-57.8,66,-46.4,74.7,-32.6C83.4,-18.7,90.2,-2.4,84.5,9.6C78.7,21.6,60.6,29.2,47.6,37.6C34.6,45.9,26.7,55,16.6,59.2C6.4,63.5,-5.9,62.9,-19.8,61.5C-33.7,60.2,-49.2,58.1,-57.3,49.3C-65.3,40.5,-66,25.1,-67.2,10.3C-68.3,-4.5,-69.8,-18.5,-66,-31.6C-62.3,-44.7,-53.3,-56.8,-41.4,-67.2C-29.5,-77.6,-14.7,-86.3,0,-86.4C14.8,-86.4,29.7,-77.8,42.5,-67.8Z" transform="translate(100 100)" />
</svg>
