<?xml version="1.0" standalone="no"?>
<!DOCTYPE svg PUBLIC "-//W3C//DTD SVG 20010904//EN"
 "http://www.w3.org/TR/2001/REC-SVG-20010904/DTD/svg10.dtd">
<svg version="1.0" xmlns="http://www.w3.org/2000/svg"
 width="500.000000pt" height="375.000000pt" viewBox="0 0 500.000000 375.000000"
 preserveAspectRatio="xMidYMid meet">

<g transform="translate(0.000000,375.000000) scale(0.100000,-0.100000)"
fill="#45d62f" stroke="none">
<path d="M3482 2633 c-18 -13 -25 -13 -37 -3 -13 11 -14 10 -10 -2 7 -16 -20
-32 -36 -22 -5 3 -8 0 -7 -8 2 -7 -3 -12 -9 -10 -7 1 -13 -2 -13 -8 0 -15 -35
-47 -46 -43 -5 2 -21 -15 -34 -36 -14 -22 -34 -41 -45 -43 -11 -2 -20 -11 -20
-20 0 -24 -45 -68 -69 -69 -12 0 -15 -3 -8 -6 10 -4 10 -8 1 -19 -14 -17 -33
-19 -23 -2 5 7 3 8 -5 4 -7 -5 -10 -14 -7 -22 3 -8 0 -11 -10 -7 -7 3 -15 0
-15 -6 -1 -6 -3 -15 -4 -21 -1 -5 -3 -13 -4 -17 -1 -5 -5 -2 -9 5 -6 9 -13 7
-28 -10 -16 -19 -16 -20 -1 -9 9 8 20 11 23 8 8 -8 -33 -47 -50 -47 -7 0 -20
-8 -27 -17 -13 -16 -12 -17 4 -4 36 29 24 3 -29 -59 -73 -86 -273 -387 -302
-453 -7 -15 -17 -25 -22 -22 -7 4 -7 13 0 26 6 10 9 19 6 19 -7 0 -66 -92
-121 -187 -26 -46 -51 -83 -56 -83 -5 0 -22 18 -37 39 -27 38 -176 196 -444
475 -136 142 -147 155 -181 222 -35 69 -47 78 -94 65 -31 -9 -99 -56 -147
-101 -10 -10 33 -65 148 -190 44 -47 134 -143 200 -215 210 -226 259 -280 341
-376 44 -51 100 -115 124 -141 l44 -48 86 0 c99 0 126 12 136 63 7 33 15 55
70 172 35 74 48 105 49 118 1 4 6 11 11 15 6 4 23 37 39 75 16 37 31 67 35 67
3 0 15 17 26 38 34 64 79 137 89 144 6 4 8 8 3 8 -4 0 -1 13 8 30 13 26 13 30
0 38 -12 6 -9 11 17 21 41 16 96 99 76 113 -10 7 -8 8 4 4 17 -5 43 25 32 37
-5 5 6 19 91 116 22 25 31 39 20 31 -11 -8 -27 -24 -36 -34 -13 -16 -16 -17
-22 -4 -3 10 4 25 19 39 27 26 33 48 7 28 -16 -13 -17 -12 -4 4 7 9 20 17 28
17 8 0 12 4 9 9 -3 4 7 19 22 32 l27 24 -23 -26 c-13 -15 -19 -29 -14 -33 9
-5 37 41 34 56 -1 4 10 16 23 26 14 11 25 23 25 26 0 4 12 18 28 31 15 13 24
27 20 31 -8 8 -40 -15 -34 -25 2 -3 -13 -14 -33 -23 l-36 -17 36 32 c100 88
144 122 156 121 7 -1 11 2 8 6 -3 5 12 22 33 39 38 31 34 42 -6 14z m-242
-243 c0 -5 -5 -10 -11 -10 -5 0 -7 5 -4 10 3 6 8 10 11 10 2 0 4 -4 4 -10z
m-163 -166 c-15 -15 -27 -23 -27 -19 0 12 42 56 48 50 3 -3 -7 -17 -21 -31z
m-37 -38 c0 -3 -4 -8 -10 -11 -5 -3 -10 -1 -10 4 0 6 5 11 10 11 6 0 10 -2 10
-4z m-30 -30 c0 -2 -8 -10 -17 -17 -16 -13 -17 -12 -4 4 13 16 21 21 21 13z
m-57 -75 c-15 -22 -30 -38 -32 -36 -6 7 40 75 50 75 6 0 -2 -18 -18 -39z
m-104 -145 c-29 -42 -56 -76 -61 -76 -7 0 11 35 35 65 4 6 21 30 38 53 17 24
33 42 35 39 3 -3 -18 -39 -47 -81z m115 56 c3 -5 -1 -9 -9 -9 -8 0 -12 4 -9 9
3 4 7 8 9 8 2 0 6 -4 9 -8z m-184 -162 c0 -5 -4 -10 -10 -10 -5 0 -10 5 -10
10 0 6 5 10 10 10 6 0 10 -4 10 -10z m-26 -38 c3 -5 -1 -9 -9 -9 -8 0 -12 4
-9 9 3 4 7 8 9 8 2 0 6 -4 9 -8z"/>
<path d="M3392 2525 c-20 -19 -32 -34 -27 -34 12 0 33 17 59 47 29 34 10 26
-32 -13z"/>
<path d="M2945 2159 c-4 -6 -5 -12 -2 -15 2 -3 7 2 10 11 7 17 1 20 -8 4z"/>
<path d="M2900 2100 c-6 -11 -8 -20 -6 -20 3 0 10 9 16 20 6 11 8 20 6 20 -3
0 -10 -9 -16 -20z"/>
<path d="M2840 2025 c-7 -9 -11 -17 -9 -20 3 -2 10 5 17 15 14 24 10 26 -8 5z"/>
</g>
</svg>
