<?xml version="1.0" standalone="no"?>
<!DOCTYPE svg PUBLIC "-//W3C//DTD SVG 20010904//EN"
 "http://www.w3.org/TR/2001/REC-SVG-20010904/DTD/svg10.dtd">
<svg version="1.0" xmlns="http://www.w3.org/2000/svg"
 width="500.000000pt" height="375.000000pt" viewBox="0 0 500.000000 375.000000"
 preserveAspectRatio="xMidYMid meet">

<g transform="translate(0.000000,375.000000) scale(0.100000,-0.100000)"
fill="#000000" stroke="none">
<path d="M2926 3079 c-14 -17 -26 -41 -26 -54 0 -12 -7 -42 -16 -66 -9 -24
-47 -134 -83 -243 -76 -228 -54 -204 -216 -231 -155 -25 -187 -33 -280 -64
-107 -37 -187 -75 -211 -103 -28 -30 -25 -120 6 -183 20 -38 37 -56 80 -81 30
-18 58 -30 62 -27 5 2 8 0 8 -4 0 -16 156 -64 220 -69 19 -1 47 -7 61 -12 25
-10 26 -11 15 -64 -6 -29 -13 -55 -17 -58 -14 -11 -37 -68 -49 -120 -20 -87
-41 -163 -52 -187 -10 -21 -49 -39 -76 -34 -7 1 -28 -3 -46 -9 -18 -5 -55 -11
-84 -11 -29 -1 -52 -6 -52 -11 0 -6 -11 -8 -25 -6 -14 3 -25 1 -25 -4 0 -6 -7
-8 -15 -4 -21 8 -177 -13 -270 -36 -44 -11 -100 -23 -125 -28 -25 -5 -56 -13
-70 -18 -28 -11 -34 -12 -53 -12 -8 0 -14 -7 -14 -16 0 -13 8 -15 38 -10 33 5
37 4 32 -14 -6 -23 -4 -24 32 -10 20 8 27 7 31 -5 5 -13 8 -13 21 0 17 18 37
20 27 3 -5 -7 -2 -9 8 -5 9 3 21 0 27 -6 8 -8 11 -7 11 6 0 13 8 17 33 16 28
0 29 -2 12 -10 -30 -14 134 -1 205 16 48 12 49 12 58 14 4 1 0 6 -8 11 -13 8
-13 10 2 10 9 0 18 -4 20 -10 3 -9 120 0 208 15 14 2 32 0 40 -5 13 -8 13 -13
2 -30 -7 -11 -11 -24 -8 -28 2 -4 -5 -41 -16 -82 -32 -121 -43 -182 -53 -305
-4 -38 -13 -108 -21 -155 -7 -47 -14 -88 -14 -92 0 -12 49 -9 73 3 53 28 62
50 72 169 11 121 12 131 30 229 14 82 51 249 71 319 4 14 12 21 20 18 7 -3 41
2 76 10 35 9 89 22 121 30 32 8 67 14 77 14 11 0 40 7 66 16 25 9 54 17 64 19
9 2 47 13 85 24 37 12 77 23 89 25 35 6 207 75 245 98 20 12 51 35 69 52 28
26 31 34 26 66 -4 19 -12 38 -18 42 -6 4 -7 8 -1 8 19 0 -63 49 -126 75 -65
26 -340 97 -506 131 -71 14 -93 22 -93 34 0 9 14 56 30 106 17 49 32 100 34
114 1 14 8 39 15 55 7 17 13 38 14 47 1 9 5 14 9 12 4 -3 8 2 8 10 0 12 11 16
38 17 67 2 356 1 407 -1 53 -3 85 6 85 22 0 5 10 23 21 40 41 57 -10 70 -286
73 -151 2 -210 6 -213 14 -4 11 6 44 29 96 4 11 16 49 25 85 8 36 19 70 24 75
18 24 29 88 34 198 5 130 -1 142 -48 86z m-251 -714 c12 -3 12 -11 -1 -57 -9
-29 -19 -57 -24 -63 -9 -13 -46 -120 -55 -162 -3 -18 -10 -35 -14 -37 -4 -3
-67 10 -140 29 -131 34 -234 77 -280 115 -21 18 -22 23 -10 34 22 20 154 76
194 83 19 3 38 10 41 14 3 5 21 9 40 9 20 0 43 4 52 9 9 5 40 11 69 14 28 3
60 10 69 15 10 6 24 8 31 6 7 -2 20 -6 28 -9z m65 -469 c66 -9 135 -24 260
-56 69 -17 147 -34 174 -36 28 -2 52 -8 55 -13 3 -4 23 -14 44 -22 20 -7 37
-16 37 -19 0 -9 -111 -66 -145 -74 -16 -4 -36 -13 -43 -19 -8 -6 -21 -12 -30
-13 -10 -1 -62 -16 -116 -33 -55 -17 -101 -29 -104 -26 -2 2 -14 -1 -26 -7
-11 -7 -41 -16 -66 -20 -25 -5 -58 -12 -75 -15 -16 -3 -35 -9 -41 -14 -6 -5
-32 -10 -59 -11 l-49 -3 -2 35 c-1 19 4 46 12 60 14 25 53 146 74 230 14 54
28 72 49 65 9 -2 32 -7 51 -9z m-193 -492 c-3 -3 -12 -4 -19 -1 -8 3 -5 6 6 6
11 1 17 -2 13 -5z m-862 -84 c3 -5 -1 -10 -10 -10 -9 0 -13 5 -10 10 3 6 8 10
10 10 2 0 7 -4 10 -10z"/>
</g>
</svg>
