<svg width="1840" height="1380" viewBox="0 0 1840 1380" fill="none" xmlns="http://www.w3.org/2000/svg">
<path d="M790.333 719.704C790.333 719.704 789.523 699.392 799.679 686.404C809.834 673.416 818.969 663.742 823.073 661.931C827.178 660.119 833.094 658.963 836.062 654.415C839.029 649.867 844.714 642.121 850.418 641.427C856.103 640.752 869.322 638.459 869.322 638.459L878.88 628.67V623.428C878.88 623.428 872.964 623.891 870.69 622.06C868.417 620.229 861.344 602.25 863.175 597.008C865.006 591.767 872.29 588.587 872.29 588.587C872.29 588.587 884.585 551.241 901.215 544.188C917.845 537.135 971.128 550.567 971.128 550.567C971.128 550.567 975.001 590.187 975.233 589.512C975.464 588.838 987.759 586.101 987.759 586.101C987.759 586.101 987.759 607.742 982.979 610.691C978.2 613.658 975.695 614.101 975.695 614.101C975.695 614.101 977.738 625.953 974.79 636.185C971.841 646.418 964.769 656.901 964.769 656.901C964.769 656.901 1002.12 670.333 1009.63 677.617C1017.15 684.901 1043.33 719.511 1051.76 737.278C1060.18 755.046 1062.68 763.004 1067.92 767.109C1073.17 771.213 1080.68 776.224 1082.95 778.498C1085.23 780.772 1088.43 785.782 1091.84 793.76C1095.25 801.738 1112.34 822.222 1112.34 822.222L1028.77 829.275C1028.77 829.275 1007.59 814.476 1001.9 808.328C996.218 802.181 993.925 798.076 993.925 798.076L981.631 829.275C981.631 829.275 1081.61 827.445 1095.5 825.864C1109.39 824.265 1132.17 820.392 1142.19 818.811C1152.21 817.212 1201.85 806.517 1208.23 808.56C1214.61 810.602 1229.87 817.906 1234.19 823.128C1238.53 828.37 1245.12 844.538 1241.7 852.959C1238.29 861.38 1223.49 868.452 1220.76 869.127C1218.02 869.801 1206.63 873.231 1203.92 873.906C1201.2 874.58 1195.73 876.411 1191.85 874.368C1187.98 872.326 1182.97 868.895 1182.97 868.895C1182.97 868.895 1174.55 866.621 1168.17 864.791C1161.79 862.96 1137.88 861.38 1133.56 861.149C1129.22 860.917 1109.41 866.39 1109.41 866.39C1109.41 866.39 1113.75 874.137 1112.59 877.317C1111.46 880.496 1099.16 895.527 1099.16 895.527L1085.5 894.159L1081.16 899.844L1067.27 895.97L1061.58 899.15L1052.03 897.782C1052.03 897.782 957.754 879.109 942.492 864.984C927.23 850.858 818.371 780.039 818.371 780.039L790.333 719.704Z" fill="white"/>
<path d="M988.959 910.826L821.229 961.18L859.519 982.108L1005.61 1004.81L1155.61 944.53L1155.26 937.786C1155.26 937.766 989.305 912.946 988.959 910.826Z" fill="white" stroke="black" stroke-width="3.85409" stroke-miterlimit="10" stroke-linecap="round" stroke-linejoin="round"/>
<path d="M998.15 980.489L1118.34 938.961L994.932 919.652L875.918 959.427L998.15 980.489Z" stroke="black" stroke-width="3.85409" stroke-miterlimit="10" stroke-linecap="round" stroke-linejoin="round"/>
<path d="M804.442 608.782C803.536 598.164 806.33 587.623 812.574 578.99C821.188 567.081 831.247 549.063 829.783 531.392C828.646 517.671 816.621 497.958 819.473 486.665C822.325 475.373 833.348 451.497 815.792 434.751C801.147 420.779 790.625 422.013 775.17 414.131C762.008 407.425 739.481 392.568 712.31 403.976C688.241 414.093 687.046 432.785 673.306 441.534C659.586 450.263 644.015 456.719 638.543 488.477C632.954 520.928 649.662 534.225 631.856 551.048C614.05 567.871 569.612 549.603 560.208 603.887C553.02 645.377 581.791 653.297 591.677 661.988C601.563 670.679 740.406 693.379 764.302 678.927C801.628 656.342 805.964 626.723 804.442 608.782Z" fill="black"/>
<path d="M696.72 540.893L662.265 597.798L711.231 699.816L761.642 588.972L696.72 540.893Z" fill="white" stroke="black" stroke-width="3.85409" stroke-miterlimit="10" stroke-linecap="round" stroke-linejoin="round"/>
<path d="M814.197 490.942C814.197 490.942 808.666 556.751 784.771 585.791C763.669 611.421 745.883 608.743 727.017 588.316C711.543 571.57 695.587 544.688 695.587 544.688C695.587 544.688 677.126 535.92 683.023 521.235C688.9 506.551 704.143 517.381 704.143 517.381C704.143 517.381 720.215 519.424 720.407 493.023C720.561 473.58 737.423 447.526 777.409 454.887C817.376 462.268 814.197 490.942 814.197 490.942Z" fill="white" stroke="black" stroke-width="3.85409" stroke-miterlimit="10" stroke-linecap="round" stroke-linejoin="round"/>
<path d="M785.733 562.301C785.733 562.301 777.89 562.59 769.546 558.736C761.202 554.882 755.074 550.314 755.074 550.314C755.074 550.314 751.528 565.962 762.185 572.032C775.346 579.528 785.733 562.301 785.733 562.301Z" stroke="black" stroke-width="3.85409" stroke-miterlimit="10" stroke-linecap="round" stroke-linejoin="round"/>
<path d="M787.376 504.779C787.472 505.434 784.408 521.583 788.956 534.976C789.997 538.059 788.628 542.087 783.946 542.376C777.297 542.781 774.812 538.984 774.812 538.984" stroke="black" stroke-width="3.85409" stroke-miterlimit="10" stroke-linecap="round" stroke-linejoin="round"/>
<path d="M746.786 651.332L721.618 716.813C721.618 716.813 682.461 679.659 662.998 647.613C643.534 615.585 617.365 599.359 617.365 599.359C617.365 599.359 560.113 628.477 534.984 673.705C509.855 718.933 510.318 766.877 500.605 813.011C493.822 845.27 491.606 898.456 490.7 917.264C489.294 946.497 492.126 978.12 493.745 991.494C495.19 1003.48 503.554 1017.89 510.761 1023.5C517.987 1029.11 564.314 1037.69 570.326 1036.88C576.338 1036.07 607.133 1014.19 608.424 1004.06C611.68 978.486 572.369 959.004 588.016 952.992C603.664 946.979 617.693 946.266 617.693 946.266C617.693 946.266 691.113 959.466 722.466 951.296C753.819 943.125 726.802 934.107 726.802 934.107L776.52 829.256C776.52 829.256 830.034 872.788 834.119 879.59C838.205 886.393 845.007 899.555 849.536 900.46C854.064 901.366 858.612 908.169 866.32 910.886C874.028 913.603 879.925 904.989 879.925 904.989C879.925 904.989 875.397 869.608 892.624 855.098C909.852 840.587 940.801 845.154 940.801 845.154C940.801 845.154 940.801 837.33 935.116 833.785C929.431 830.239 902.394 824.072 899.33 823.59C896.247 823.109 895.765 820.276 892.22 816.248C888.674 812.221 877.767 806.286 871.369 802.74C864.971 799.175 864.027 801.083 861.657 799.175C859.287 797.286 852.889 782.814 842.463 772.389C832.038 761.964 817.566 742.038 805.002 720.243C792.437 698.429 786.752 693.226 782.012 688.235C777.271 683.263 760.448 662.162 755.457 657.421C750.447 652.661 746.786 651.332 746.786 651.332Z" fill="#45D62F" stroke="black" stroke-width="3.85409" stroke-linecap="round" stroke-linejoin="round"/>
<path d="M622.837 935.936C622.837 935.936 605.898 914.276 567.974 913.37C545.389 912.831 522.9 922.967 522.9 922.967" stroke="black" stroke-width="3.85409" stroke-miterlimit="10" stroke-linecap="round" stroke-linejoin="round"/>
<path d="M884.279 956.113C884.279 956.113 918.33 979.372 927.696 978.813C937.061 978.254 939.335 974.265 939.335 971.144C939.335 968.022 899.619 935.686 895.649 933.701C891.679 931.716 840.323 917.533 834.928 917.533C829.532 917.533 747.266 920.655 733.931 922.081C720.596 923.507 627.828 936.264 622.721 936.264C617.615 936.264 599.905 931.986 584.026 940.176C573.929 945.379 561.114 967.617 554.35 992.148C551.652 1001.92 551.787 1006.04 556.335 1014.27C560.883 1022.5 564.563 1026.18 564.563 1026.18C564.563 1026.18 608.037 1018.38 627.963 1013.27C653.439 1006.76 725.626 976.462 733.276 977.31C740.946 978.158 748.808 986.714 767.982 987.022C781.394 987.234 808.546 996.388 816.216 994.962C823.886 993.536 840.054 989.296 840.054 989.296C840.054 989.296 847.993 993.844 857.937 991.57C867.861 989.296 870.135 977.946 870.135 977.946C870.135 977.946 883.47 996.677 890.272 997.525C897.075 998.373 902.471 992.418 901.045 986.464C899.599 980.509 884.279 956.113 884.279 956.113Z" fill="white" stroke="black" stroke-width="3.85409" stroke-miterlimit="10" stroke-linecap="round" stroke-linejoin="round"/>
<path d="M884.281 956.112C884.281 954.686 868.113 936.533 863.565 933.99C859.017 931.427 823.271 927.746 823.271 927.746" stroke="black" stroke-width="3.85409" stroke-miterlimit="10" stroke-linecap="round" stroke-linejoin="round"/>
<path d="M870.095 977.964C870.095 977.964 859.593 964.918 845.699 957.827C831.805 950.735 812.785 946.477 812.785 946.477" stroke="black" stroke-width="3.85409" stroke-miterlimit="10" stroke-linecap="round" stroke-linejoin="round"/>
<path d="M840.013 989.316C840.013 989.316 814.769 973.996 807.099 970.875C799.429 967.753 793.205 964.342 793.205 964.342" stroke="black" stroke-width="3.85409" stroke-miterlimit="10" stroke-linecap="round" stroke-linejoin="round"/>
<path d="M776.513 829.236C776.513 829.236 780.251 809.06 781.562 788.807C782.872 768.554 781.562 750.594 781.562 750.594" stroke="black" stroke-width="3.85409" stroke-miterlimit="10" stroke-linecap="round" stroke-linejoin="round"/>
<path d="M940.006 843.862C940.006 843.862 971.379 861.706 979.029 864.654C986.679 867.603 989.628 867.005 993.154 863.672C996.681 860.338 1015.91 854.653 1019.63 853.67C1023.35 852.687 1031.6 851.705 1034.53 854.46C1037.48 857.197 1041.2 864.654 1041.2 864.654C1041.2 864.654 1046.09 863.479 1049.04 870.146C1051.99 876.814 1054.34 887.201 1054.53 890.747C1054.72 894.273 1051 903.504 1051 903.504C1051 903.504 1050.21 913.312 1046.88 918.997C1043.55 924.682 1036.69 928.998 1033.74 929.384C1030.79 929.769 1000.79 928.208 999.225 926.05C997.664 923.892 997.066 918.785 997.066 918.785C997.066 918.785 990.206 917.417 988.433 915.644C986.66 913.871 982.748 912.118 982.748 912.118L878.225 900.748C878.225 900.748 866.663 875.446 883.525 855.828C900.386 836.211 940.006 843.862 940.006 843.862Z" fill="white" stroke="black" stroke-width="3.85409" stroke-miterlimit="10" stroke-linecap="round" stroke-linejoin="round"/>
<path d="M1012.75 924.277C1012.75 924.277 1021.77 924.085 1030.98 918.4C1040.2 912.715 1050.99 903.504 1050.99 903.504" stroke="black" stroke-width="3.85409" stroke-miterlimit="10" stroke-linecap="round" stroke-linejoin="round"/>
<path d="M1086.45 893.542C1086.45 893.542 1090.46 894.621 1093.95 895.141C1097.43 895.681 1098.49 896.22 1100.9 894.062C1103.31 891.904 1110.02 882.538 1111.08 879.59C1112.16 876.642 1109.75 865.118 1106.53 864.598C1103.31 864.058 1098.76 862.189 1098.76 862.189C1098.76 862.189 1093.14 856.832 1089.65 856.562C1086.16 856.292 1082.15 856.562 1082.15 856.562C1082.15 856.562 1077.07 850.395 1071.98 850.395C1066.89 850.395 1063.13 851.995 1063.13 851.995C1063.13 851.995 1058.58 847.177 1052.96 848.777C1047.33 850.376 1039.29 858.682 1039.29 858.682" stroke="black" stroke-width="3.85409" stroke-miterlimit="10" stroke-linecap="round" stroke-linejoin="round"/>
<path d="M1091.81 872.652C1091.81 872.652 1085.12 898.359 1081.9 898.899C1078.68 899.438 1069.59 895.681 1069.59 895.681" stroke="black" stroke-width="3.85409" stroke-miterlimit="10" stroke-linecap="round" stroke-linejoin="round"/>
<path d="M1076.01 864.346C1076.01 864.346 1072 869.433 1071.73 874.521C1071.46 879.608 1068.78 897.549 1065.56 898.358C1062.34 899.167 1054.85 897.549 1054.85 897.549" stroke="black" stroke-width="3.85409" stroke-miterlimit="10" stroke-linecap="round" stroke-linejoin="round"/>
<path d="M1058.6 858.18C1058.6 858.18 1052.16 868.354 1052.43 876.12" stroke="black" stroke-width="3.85409" stroke-miterlimit="10" stroke-linecap="round" stroke-linejoin="round"/>
<path d="M1108.78 866.601C1108.78 866.601 1127.34 860.126 1136.11 861.186C1144.88 862.227 1155.92 863.055 1160.1 863.055C1164.28 863.055 1172.82 868.066 1178.66 868.278C1184.5 868.489 1184.5 868.489 1184.5 868.489C1184.5 868.489 1190.12 874.964 1197 875.157C1203.88 875.369 1209.51 870.783 1209.51 870.783C1209.51 870.783 1218.89 870.995 1223.08 867.854C1227.24 864.732 1226.41 858.045 1226.41 858.045C1226.41 858.045 1234.33 855.328 1236.22 852.206C1238.09 849.084 1237.26 842.609 1237.26 842.609C1237.26 842.609 1240.38 829.891 1238.72 826.962C1237.05 824.033 1212.86 808.809 1205.98 808.616C1199.1 808.404 1172.4 815.284 1157.6 817.172C1142.8 819.041 1116.3 821.971 1092.94 825.092C1069.59 828.214 1007.02 830.103 990.752 829.891C974.487 829.679 964.467 826.345 964.467 826.345" stroke="black" stroke-width="3.85409" stroke-miterlimit="10" stroke-linecap="round" stroke-linejoin="round"/>
<path d="M1214.79 823.629C1214.41 822.685 1235.93 838.294 1236.9 841.339" stroke="black" stroke-width="3.85409" stroke-miterlimit="10" stroke-linecap="round" stroke-linejoin="round"/>
<path d="M1207.27 837.889C1207.02 836.887 1226.31 855.194 1226.85 858.354" stroke="black" stroke-width="3.85409" stroke-miterlimit="10" stroke-linecap="round" stroke-linejoin="round"/>
<path d="M1198.77 852.978C1198.52 851.976 1210.49 866.814 1211.05 869.975" stroke="black" stroke-width="3.85409" stroke-miterlimit="10" stroke-linecap="round" stroke-linejoin="round"/>
<path d="M980.732 827.637C980.732 827.637 989.211 814.09 995.975 793.759C1002.76 773.429 1008.17 748.705 1008.17 748.705" stroke="black" stroke-width="3.85409" stroke-miterlimit="10" stroke-linecap="round" stroke-linejoin="round"/>
<path d="M875.375 635.086C875.375 635.086 879.576 654.915 895.204 678.04C910.833 701.164 915.034 707.177 915.631 714.384C916.228 721.591 914.725 725.195 916.537 727.892C918.348 730.59 920.449 748.319 920.449 756.124C920.449 763.928 919.851 774.142 919.851 774.142" stroke="black" stroke-width="3.85409" stroke-miterlimit="10" stroke-linecap="round" stroke-linejoin="round"/>
<path d="M877.166 718.586C877.166 718.586 896.398 743.811 900.002 751.018C903.605 758.225 912.315 768.13 928.541 781.658C944.767 795.167 945.653 798.77 949.565 803.28C953.477 807.789 960.684 812.298 963.074 815.902C965.463 819.505 968.489 822.203 968.489 822.203C968.489 822.203 960.087 828.813 956.772 832.725C953.477 836.637 945.056 847.139 945.056 847.139" stroke="black" stroke-width="3.85409" stroke-miterlimit="10" stroke-linecap="round" stroke-linejoin="round"/>
<path d="M944.737 686.441C944.737 686.441 923.135 749.398 922.056 763.215" stroke="black" stroke-width="3.85409" stroke-miterlimit="10" stroke-linecap="round" stroke-linejoin="round"/>
<path d="M878.347 630.326C878.347 630.326 864.877 644.259 863.239 649.674C861.601 655.089 858.903 662.681 858.634 664.84C858.364 666.998 867.845 677.577 878.424 690.315C888.985 703.053 895.498 717.949 896.847 720.936C898.196 723.923 900.643 715.521 904.979 713.343C909.315 711.185 915.616 714.384 915.616 714.384" stroke="black" stroke-width="3.85409" stroke-miterlimit="10" stroke-linecap="round" stroke-linejoin="round"/>
<path d="M869.484 637.861C869.484 637.861 846.995 640.463 841.291 648.036C835.587 655.609 829.902 658.866 823.408 661.853C816.914 664.84 793.597 689.217 793.597 698.987" stroke="black" stroke-width="3.85409" stroke-miterlimit="10" stroke-linecap="round" stroke-linejoin="round"/>
<path d="M965.949 657.537C965.949 657.537 987.359 665.669 998.748 670.275C1010.14 674.881 1021.51 688.158 1030.45 703.613C1039.39 719.068 1047.52 732.885 1052.94 741.287C1058.35 749.688 1060.53 754.024 1064.59 762.696C1068.66 771.368 1074.62 774.624 1080.05 777.592C1085.46 780.579 1088.18 786.534 1093.87 797.653C1099.55 808.772 1112.56 822.589 1112.56 822.589" stroke="black" stroke-width="3.85409" stroke-miterlimit="10" stroke-linecap="round" stroke-linejoin="round"/>
<path d="M994.409 798.713C994.409 798.713 997.936 806.575 1007.15 813.879C1016.36 821.182 1024.49 829.873 1024.49 829.873" stroke="black" stroke-width="3.85409" stroke-miterlimit="10" stroke-linecap="round" stroke-linejoin="round"/>
<path d="M956.392 669.176C956.392 669.176 963.946 703.169 960.266 708.064C956.585 712.958 946.487 715.117 943.115 725.831C939.743 736.545 920.511 772.889 920.511 772.889" stroke="black" stroke-width="3.85409" stroke-miterlimit="10" stroke-linecap="round" stroke-linejoin="round"/>
<path d="M867.765 591.362C867.765 591.362 875.627 603.155 882.102 602.462C888.577 601.768 892.74 589.049 894.358 581.437C895.977 573.806 894.358 559.257 921.857 562.475C949.356 565.694 963.019 566.407 972.288 560.298C983.234 553.071 980.825 539.081 978.031 530.12C975.41 521.68 960.687 502.853 959.994 503.315C959.3 503.778 951.9 514.877 941.031 516.958C930.163 519.04 885.089 519.733 874.24 533.377C863.372 547.02 865.221 560.645 865.915 569.432C866.609 578.181 867.765 591.362 867.765 591.362Z" fill="black"/>
<path d="M909.408 596.063C909.408 596.063 930.894 596.256 950.473 593.963C970.052 591.67 987.549 586.178 987.549 586.178C987.549 586.178 986.971 607.279 980.515 611.846C974.06 616.413 965.311 615.642 960.185 613.176C955.059 610.709 951.07 597.393 947.255 597.393C943.439 597.393 946.869 605.949 938.313 613.927C929.757 621.905 920.295 622.734 914.36 617.916C905.226 610.516 909.408 596.063 909.408 596.063Z" stroke="black" stroke-width="3.85409" stroke-miterlimit="10" stroke-linecap="round" stroke-linejoin="round"/>
<path d="M909.407 596.064L875.375 588.838" stroke="black" stroke-width="3.85409" stroke-miterlimit="10" stroke-linecap="round" stroke-linejoin="round"/>
<path d="M926.52 608.416C928.202 608.416 929.565 607.052 929.565 605.371C929.565 603.689 928.202 602.326 926.52 602.326C924.839 602.326 923.476 603.689 923.476 605.371C923.476 607.052 924.839 608.416 926.52 608.416Z" stroke="black" stroke-width="3.85409" stroke-miterlimit="10" stroke-linecap="round" stroke-linejoin="round"/>
<path d="M968.336 603.482C970.017 603.482 971.38 602.119 971.38 600.437C971.38 598.756 970.017 597.393 968.336 597.393C966.654 597.393 965.291 598.756 965.291 600.437C965.291 602.119 966.654 603.482 968.336 603.482Z" stroke="black" stroke-width="3.85409" stroke-miterlimit="10" stroke-linecap="round" stroke-linejoin="round"/>
<path d="M913.78 590.744L931.451 589.029" stroke="black" stroke-width="3.85409" stroke-miterlimit="10" stroke-linecap="round" stroke-linejoin="round"/>
<path d="M954.459 588.452C954.459 588.452 960.163 582.748 968.334 585.214" stroke="black" stroke-width="3.85409" stroke-miterlimit="10" stroke-linecap="round" stroke-linejoin="round"/>
<path d="M950.652 609.746C950.652 609.746 951.231 617.531 953.312 622.098C955.412 626.666 956.915 629.71 956.915 629.71C956.915 629.71 953.485 632.177 947.415 631.811" stroke="black" stroke-width="3.85409" stroke-miterlimit="10" stroke-linecap="round" stroke-linejoin="round"/>
<path d="M929.741 644.721C929.741 644.721 934.501 645.666 941.708 644.914C948.935 644.163 954.253 640.732 954.253 640.732C954.253 640.732 956.161 650.425 947.605 652.699C939.068 654.993 929.741 644.721 929.741 644.721Z" stroke="black" stroke-width="3.85409" stroke-miterlimit="10" stroke-linecap="round" stroke-linejoin="round"/>
<path d="M972.884 551.645C972.884 551.645 977.22 611.826 974.926 628.399C972.633 644.971 962.94 670.216 945.096 673.8C927.251 677.365 912.972 668.443 903.529 656.457" stroke="black" stroke-width="3.85409" stroke-miterlimit="10" stroke-linecap="round" stroke-linejoin="round"/>
<path d="M871.894 591.688C871.894 591.688 863.993 589.395 862.972 596.024C861.95 602.653 866.286 620.767 871.393 622.81C876.499 624.853 879.043 622.81 879.043 622.81L881.086 651.118" stroke="black" stroke-width="3.85409" stroke-miterlimit="10" stroke-linecap="round" stroke-linejoin="round"/>
<path d="M947.639 674.07L943.303 709.258" stroke="black" stroke-width="3.85409" stroke-miterlimit="10" stroke-linecap="round" stroke-linejoin="round"/>
<path d="M721.617 716.813C721.617 716.813 718.881 698.294 718.341 687.984C717.801 677.675 718.013 678.812 718.013 678.812L667.64 591.497L676.852 577.95L648.177 572.092L617.325 599.359C617.325 599.359 641.355 637.168 667.409 664.417C693.463 691.665 721.617 716.813 721.617 716.813Z" fill="#45D62F" stroke="black" stroke-width="3.85409" stroke-linecap="round" stroke-linejoin="round"/>
<path d="M742.371 632.254L746.784 651.332" stroke="black" stroke-width="3.85409" stroke-miterlimit="10" stroke-linecap="round" stroke-linejoin="round"/>
<path d="M694.681 546.693L676.875 577.95" stroke="black" stroke-width="3.85409" stroke-miterlimit="10" stroke-linecap="round" stroke-linejoin="round"/>
<path d="M721.621 716.813L718.345 681.22L749.736 616.221L755.421 657.402L721.621 716.813Z" fill="#45D62F" stroke="black" stroke-width="3.85409" stroke-linecap="round" stroke-linejoin="round"/>
<path d="M745.843 485.643C745.843 485.643 738.887 491.829 742.779 501.984C746.344 511.273 752.048 514.799 760.566 514.953C771.55 515.165 776.541 510.618 779.856 503.738C782.958 497.302 778.121 486.318 778.121 486.318C778.121 486.318 777.543 489.324 775.462 489.555C771.588 490.017 773.554 483.311 773.573 479.804C773.593 475.372 769.565 471.576 766.154 468.377C762.743 465.178 759.795 463.598 759.795 463.598C759.795 463.598 761.838 472.809 760.238 475.449C758.465 478.378 756.153 474.909 756.153 474.909C756.153 474.909 752.472 479.554 752.222 483.369C751.971 487.185 752.453 491.174 749.331 491.617C746.248 492.079 745.843 485.643 745.843 485.643Z" fill="#E62C8B"/>
<path d="M759.855 514.241C758.911 514.183 758.024 513.798 757.331 513.162C756.155 512.064 754.325 510.021 753.111 506.996C751.222 502.236 753.457 497.264 753.457 497.264C753.457 497.264 754.633 499.114 755.596 497.148C756.541 495.183 756.676 488.342 759.027 485.027C761.378 481.732 764.133 480.402 764.133 480.402C764.133 480.402 761.686 489.036 764.769 494.123C767.872 499.21 769.356 498.459 769.702 503.508C770.069 508.865 764.249 513.143 762.861 513.875C762.11 514.28 760.838 514.318 759.855 514.241Z" fill="#FFEC00"/>
<path d="M761.22 495.395C761.22 495.395 762.762 497.88 764.573 501.542C766.384 505.203 765.247 510.965 761.47 511.89C757.693 512.834 756.21 506.86 756.537 505.145C756.865 503.411 757.327 501.985 757.327 501.985L758.445 504.182C758.445 504.182 758.734 504.625 759.081 501.156C759.447 497.668 761.22 495.395 761.22 495.395Z" fill="white"/>
<path d="M790.688 489.016C790.688 489.016 783.731 495.202 787.624 505.357C791.189 514.646 796.893 518.172 805.411 518.326C816.395 518.538 821.386 513.991 824.7 507.111C827.803 500.675 822.966 489.691 822.966 489.691C822.966 489.691 822.388 492.697 820.307 492.928C816.433 493.391 818.399 486.684 818.418 483.177C818.437 478.745 814.41 474.949 810.999 471.75C807.588 468.551 804.64 466.971 804.64 466.971C804.64 466.971 806.682 476.182 805.083 478.822C803.31 481.751 800.998 478.282 800.998 478.282C800.998 478.282 797.317 482.927 797.066 486.742C796.816 490.558 797.298 494.547 794.176 494.99C791.054 495.433 790.688 489.016 790.688 489.016Z" fill="#E62C8B"/>
<path d="M804.697 517.632C803.753 517.574 802.866 517.189 802.173 516.553C800.997 515.454 799.166 513.412 797.952 510.386C796.064 505.626 798.299 500.655 798.299 500.655C798.299 500.655 799.475 502.505 800.438 500.539C801.382 498.573 801.517 491.732 803.868 488.418C806.219 485.123 808.975 483.793 808.975 483.793C808.975 483.793 806.528 492.426 809.611 497.514C812.714 502.601 814.197 501.849 814.544 506.898C814.91 512.255 809.091 516.534 807.703 517.266C806.952 517.67 805.68 517.69 804.697 517.632Z" fill="#FFEC00"/>
<path d="M806.049 498.785C806.049 498.785 807.591 501.271 809.402 504.932C811.214 508.594 810.077 514.356 806.3 515.281C802.523 516.206 801.039 510.251 801.366 508.536C801.694 506.802 802.156 505.376 802.156 505.376L803.274 507.573C803.274 507.573 803.563 508.016 803.91 504.547C804.276 501.059 806.049 498.785 806.049 498.785Z" fill="white"/>
<path d="M585.973 912.852L602.006 817.309" stroke="black" stroke-width="3.85409" stroke-miterlimit="10" stroke-linecap="round" stroke-linejoin="round"/>
<path d="M697.702 542.896L691.42 556.771L714.101 581.399L723.659 570.511L697.702 542.896Z" fill="white"/>
<path d="M1000.79 945.476L999.136 932.834L1019.47 824.881C1019.47 824.881 1021.87 822.626 1025.94 823.378C1030.01 824.13 1030.16 825.478 1030.16 825.478L1010.29 934.8L1000.79 945.476Z" fill="#45D62F" stroke="black" stroke-width="3.85409" stroke-linecap="round" stroke-linejoin="round"/>
<path d="M995.855 873.25L997.667 879.571C997.667 879.571 1009.63 887.414 1009.63 892.906C1009.63 898.398 1007.28 902.715 1002.97 903.505C998.65 904.295 991.404 901.346 985.507 897.222C979.63 893.099 974.909 888.782 974.138 886.624" fill="white"/>
<path d="M995.855 873.25L997.667 879.571C997.667 879.571 1009.63 887.414 1009.63 892.906C1009.63 898.398 1007.28 902.715 1002.97 903.505C998.65 904.295 991.404 901.346 985.507 897.222C979.63 893.099 974.909 888.782 974.138 886.624" stroke="black" stroke-width="3.85409" stroke-miterlimit="10" stroke-linecap="round" stroke-linejoin="round"/>
<path d="M1022.1 872.459L1024.72 879.358C1024.72 879.358 1011 893.676 1009.03 901.133C1007.07 908.591 1009.03 912.696 1011.39 914.276C1013.74 915.837 1017.07 917.012 1018.44 915.644C1019.81 914.276 1043.74 889.764 1045.71 886.815C1047.67 883.867 1050.02 873.48 1050.02 873.48" fill="white"/>
<path d="M1022.1 872.459L1024.72 879.358C1024.72 879.358 1011 893.676 1009.03 901.133C1007.07 908.591 1009.03 912.696 1011.39 914.276C1013.74 915.837 1017.07 917.012 1018.44 915.644C1019.81 914.276 1043.74 889.764 1045.71 886.815C1047.67 883.867 1050.02 873.48 1050.02 873.48" stroke="black" stroke-width="3.85409" stroke-miterlimit="10" stroke-linecap="round" stroke-linejoin="round"/>
<path d="M899.306 823.57C899.306 823.57 872.269 825.17 856.313 845.115" stroke="black" stroke-width="3.85409" stroke-miterlimit="10" stroke-linecap="round" stroke-linejoin="round"/>
<path d="M1332.03 646.918C1332.03 646.918 1460.47 981.762 1460.47 992.977C1460.47 1004.19 1317.67 1028.51 1300.21 1022.9C1282.75 1017.3 1196.71 981.145 1196.71 968.658C1196.71 963.05 1300.93 967.405 1373.79 967.405C1395.6 967.405 1411.83 967.405 1412.44 965.536C1413.06 963.667 1336.36 752.289 1336.36 752.289L1332.03 646.918Z" fill="white" stroke="black" stroke-width="3.85409" stroke-miterlimit="10" stroke-linecap="round" stroke-linejoin="round"/>
<path d="M1223.41 508.364L1227.37 875.678L1327.16 978.967L1338.82 976.636L1334.15 379.117L1323.65 376.188L1223.41 508.364Z" fill="white" stroke="black" stroke-width="3.85409" stroke-miterlimit="10" stroke-linecap="round" stroke-linejoin="round"/>
<path d="M1327.15 978.967L1323.65 376.188" stroke="black" stroke-width="3.85409" stroke-miterlimit="10" stroke-linecap="round" stroke-linejoin="round"/>
<path d="M1320.02 882.191L1234.68 823.146L1229.84 516.091L1315.73 406.037L1320.02 882.191Z" fill="white" stroke="black" stroke-width="3.85409" stroke-miterlimit="10" stroke-linecap="round" stroke-linejoin="round"/>
</svg>
