<svg width="1840" height="1380" viewBox="0 0 1840 1380" fill="none" xmlns="http://www.w3.org/2000/svg">
<path d="M704.618 356.532C704.618 356.532 697.854 360.464 698.74 366.129C699.608 371.795 703.982 383.357 705.928 387.5C707.875 391.643 709.204 396.441 709.204 396.441L705.928 453.79C705.928 453.79 752.158 523.781 768.288 527.057C784.417 530.333 795.536 499.153 795.536 499.153L795.324 467.973C795.324 467.973 818.217 460.998 825.405 449.878C832.593 438.759 850.033 418.487 853.54 397.559C857.028 376.631 860.728 361.581 859.206 343.274C857.683 324.967 852.018 301.631 823.016 297.276C794.014 292.921 729.053 308.607 729.053 308.607L704.618 356.532Z" fill="white"/>
<path d="M920.098 522.855C920.098 522.855 915.897 517.093 910.135 517.864C904.373 518.654 896.761 521.275 893.1 525.996C889.438 530.718 887.858 548.022 884.447 554.844C881.036 561.666 876.585 577.14 876.585 577.14C876.585 577.14 868.453 584.752 864.001 594.715C859.55 604.678 854.829 612.81 854.829 612.81C854.829 612.81 843.555 591.304 842.496 589.994C841.455 588.683 842.765 562.456 837.774 545.941C832.783 529.426 819.429 511.062 815.228 507.921C811.027 504.78 804.745 501.889 804.745 501.889C804.745 501.889 804.224 498.748 800.813 493.757C797.403 488.766 794.782 486.685 794.782 486.685L794.512 501.099L773.276 519.444L769.615 517.864L706.157 452.306L707.737 426.869C707.737 426.869 698.564 425.038 694.633 428.97C690.702 432.901 680.219 449.685 680.219 449.685C680.219 449.685 614.661 495.318 595.255 510.002C575.85 524.686 549.103 544.881 545.962 553.014C542.821 561.146 513.337 722.305 513.337 722.305C513.337 722.305 501.524 805.765 492.602 840.953C483.699 876.16 471.655 921.156 471.655 921.156C471.655 921.156 552.764 951.45 638.325 963.05C723.886 974.632 793.394 953.685 793.394 953.685C793.394 953.685 817.463 792.815 820.585 770.982C823.707 749.148 829.045 713.055 829.045 713.055C829.045 713.055 855.33 729.55 867.817 733.115C880.285 736.68 899.459 711.725 903.91 704.595C908.362 697.465 927.979 676.518 936.882 652.006C945.785 627.494 936.439 545.941 936.439 545.941L920.098 522.855Z" fill="#45D62F"/>
<path d="M832.243 714.114C839.065 720.03 864.232 732.479 871.632 733.655C879.032 734.83 912.216 697.811 921.389 676.19C930.561 654.569 937.383 568.969 935.899 557.407C934.415 545.864 921.678 521.564 921.678 521.564C921.678 521.564 910.713 514.164 904.797 517.71C898.881 521.256 889.091 522.45 887.029 539.62C884.948 556.81 876.951 577.236 876.951 577.236C876.951 577.236 869.243 585.831 865.1 593.52C860.956 601.228 854.443 614.255 854.443 614.255C854.443 614.255 849.992 595.601 842.303 587.893" stroke="black" stroke-width="3.85409" stroke-miterlimit="10" stroke-linecap="round" stroke-linejoin="round"/>
<path d="M833.054 385.533C845.208 385.533 855.061 375.68 855.061 363.526C855.061 351.372 845.208 341.52 833.054 341.52C820.9 341.52 811.047 351.372 811.047 363.526C811.047 375.68 820.9 385.533 833.054 385.533Z" stroke="black" stroke-width="3.85409" stroke-miterlimit="10" stroke-linecap="round" stroke-linejoin="round"/>
<path d="M766.265 385.533C778.419 385.533 788.272 375.68 788.272 363.526C788.272 351.372 778.419 341.52 766.265 341.52C754.111 341.52 744.258 351.372 744.258 363.526C744.258 375.68 754.111 385.533 766.265 385.533Z" stroke="black" stroke-width="3.85409" stroke-miterlimit="10" stroke-linecap="round" stroke-linejoin="round"/>
<path d="M810.815 358.998H788.269" stroke="black" stroke-width="3.85409" stroke-miterlimit="10" stroke-linecap="round" stroke-linejoin="round"/>
<path d="M744.566 356.339C744.296 355.549 717.953 341.713 717.953 341.713" stroke="black" stroke-width="3.85409" stroke-miterlimit="10" stroke-linecap="round" stroke-linejoin="round"/>
<path d="M827.181 362.736C829.022 362.736 830.515 361.243 830.515 359.402C830.515 357.561 829.022 356.068 827.181 356.068C825.34 356.068 823.847 357.561 823.847 359.402C823.847 361.243 825.34 362.736 827.181 362.736Z" fill="black"/>
<path d="M762.931 362.736C764.772 362.736 766.265 361.243 766.265 359.402C766.265 357.561 764.772 356.068 762.931 356.068C761.09 356.068 759.597 357.561 759.597 359.402C759.597 361.243 761.09 362.736 762.931 362.736Z" fill="black"/>
<path d="M807.62 391.738C807.62 391.738 798.312 395.457 791.394 392.528" stroke="black" stroke-width="3.85409" stroke-miterlimit="10" stroke-linecap="round" stroke-linejoin="round"/>
<path d="M807.831 423.515L771.795 407.424C771.795 407.424 770.138 422.108 779.831 428.332C796.885 439.278 807.831 423.515 807.831 423.515Z" stroke="black" stroke-width="3.85409" stroke-miterlimit="10" stroke-linecap="round" stroke-linejoin="round"/>
<path d="M840.087 335.045C840.087 335.045 826.79 328.917 819.603 332.386" stroke="black" stroke-width="3.85409" stroke-miterlimit="10" stroke-linecap="round" stroke-linejoin="round"/>
<path d="M780.484 326.797C780.484 326.797 767.187 320.669 760 324.138" stroke="black" stroke-width="3.85409" stroke-miterlimit="10" stroke-linecap="round" stroke-linejoin="round"/>
<path d="M721.961 394.379C721.961 394.379 738.014 461.787 779.734 467.568C807.869 471.46 841.342 448.182 856.161 386.189C868.359 335.161 855.159 298.412 804.458 291.975C753.738 285.558 722.925 312.19 719.071 329.534C715.217 346.877 718.358 354.913 718.358 354.913C718.358 354.913 710.399 349.748 701.091 359.056C691.784 368.364 708.8 392.76 708.8 392.76L706.314 452.171" stroke="black" stroke-width="3.85409" stroke-miterlimit="10" stroke-linecap="round" stroke-linejoin="round"/>
<path d="M708.609 360.405C717.589 362.004 726.3 356.377 728.477 347.513C730.558 339.072 733.218 329.186 735.684 323.039C740.675 310.571 752.141 309.569 785.055 313.057C817.969 316.545 848.205 314.599 854.082 334.312C856.607 342.772 853.735 395.535 853.735 395.535C853.735 395.535 864.122 372.121 868.612 349.189C873.102 326.257 868.94 318.125 868.94 307.102C868.94 306.177 876.821 300.223 881.099 287.716C885.821 273.957 886.977 253.588 886.977 253.588C886.977 253.588 863.852 268.195 829.936 259.215C825.735 258.098 820.532 256.672 814.635 255.246C785.344 248.212 738.903 241.718 712.753 278.659C685.331 317.412 701.094 359.075 701.094 359.075L708.609 360.405Z" fill="black"/>
<path d="M945.442 899.515L926.46 894.389" stroke="black" stroke-width="3.85409" stroke-miterlimit="10" stroke-linecap="round" stroke-linejoin="round"/>
<path d="M1252.65 786.686L901.333 802.064L862.348 716.947L1155.2 714.885L1252.65 786.686Z" fill="white" stroke="black" stroke-width="3.85409" stroke-miterlimit="10" stroke-linecap="round" stroke-linejoin="round"/>
<path d="M1234.69 922.602L1252.65 786.688L901.333 802.065L899.791 939.522L1234.69 922.602Z" fill="white" stroke="black" stroke-width="3.85409" stroke-miterlimit="10" stroke-linecap="round" stroke-linejoin="round"/>
<path d="M862.346 716.947L855.678 862.073L899.788 939.521L901.33 802.065L862.346 716.947Z" fill="white" stroke="black" stroke-width="3.85409" stroke-miterlimit="10" stroke-linecap="round" stroke-linejoin="round"/>
<path d="M1021.9 807.768L1015.66 921.232" stroke="black" stroke-width="3.85409" stroke-miterlimit="10" stroke-linecap="round" stroke-linejoin="round"/>
<path d="M1040.73 807.439L1034.49 920.904" stroke="black" stroke-width="3.85409" stroke-miterlimit="10" stroke-linecap="round" stroke-linejoin="round"/>
<path d="M1059.56 807.111L1053.32 920.576" stroke="black" stroke-width="3.85409" stroke-miterlimit="10" stroke-linecap="round" stroke-linejoin="round"/>
<path d="M1078.39 806.785L1072.15 920.25" stroke="black" stroke-width="3.85409" stroke-miterlimit="10" stroke-linecap="round" stroke-linejoin="round"/>
<path d="M1097.21 806.457L1090.97 919.922" stroke="black" stroke-width="3.85409" stroke-miterlimit="10" stroke-linecap="round" stroke-linejoin="round"/>
<path d="M1116.04 806.129L1109.8 919.613" stroke="black" stroke-width="3.85409" stroke-miterlimit="10" stroke-linecap="round" stroke-linejoin="round"/>
<path d="M1134.87 805.803L1128.63 919.286" stroke="black" stroke-width="3.85409" stroke-miterlimit="10" stroke-linecap="round" stroke-linejoin="round"/>
<path d="M1153.7 805.475L1147.45 918.958" stroke="black" stroke-width="3.85409" stroke-miterlimit="10" stroke-linecap="round" stroke-linejoin="round"/>
<path d="M1251.67 938.691L918.23 913.273L891.02 1065.22L1281.23 1097.15L1251.67 938.691Z" fill="white" stroke="black" stroke-width="3.85409" stroke-miterlimit="10" stroke-linecap="round" stroke-linejoin="round"/>
<path d="M1145.37 965.998L1151.02 1074.99L1265.72 1085.05L1247.83 974.342L1145.37 965.998Z" stroke="black" stroke-width="3.85409" stroke-miterlimit="10" stroke-linecap="round" stroke-linejoin="round"/>
<path d="M1140.4 1075.01L906.552 1055.11L919.212 974.131L1137.68 991.783L1140.4 1075.01Z" stroke="black" stroke-width="3.85409" stroke-miterlimit="10" stroke-linecap="round" stroke-linejoin="round"/>
<path d="M1146.72 939.307L1240.35 946.996" stroke="black" stroke-width="3.85409" stroke-miterlimit="10" stroke-linecap="round" stroke-linejoin="round"/>
<path d="M1148.09 946.553L1241.7 954.242" stroke="black" stroke-width="3.85409" stroke-miterlimit="10" stroke-linecap="round" stroke-linejoin="round"/>
<path d="M1148.53 953.336L1242.17 961.025" stroke="black" stroke-width="3.85409" stroke-miterlimit="10" stroke-linecap="round" stroke-linejoin="round"/>
<path d="M1281.23 1097.15L1279.11 1111.22L890.5 1080.85L891.02 1065.22" stroke="black" stroke-width="3.85409" stroke-miterlimit="10" stroke-linecap="round" stroke-linejoin="round"/>
<path d="M961.589 1039.73L1099.06 1051.08" stroke="black" stroke-width="3.85409" stroke-miterlimit="10" stroke-linecap="round" stroke-linejoin="round"/>
<path d="M924.069 1019.41L1126.14 1035.91" stroke="black" stroke-width="3.85409" stroke-miterlimit="10" stroke-linecap="round" stroke-linejoin="round"/>
<path d="M924.452 1003.92L1126.52 1020.42" stroke="black" stroke-width="3.85409" stroke-miterlimit="10" stroke-linecap="round" stroke-linejoin="round"/>
<path d="M924.821 987.85L1126.89 1004.35" stroke="black" stroke-width="3.85409" stroke-miterlimit="10" stroke-linecap="round" stroke-linejoin="round"/>
<path d="M769.406 518.692C769.406 518.692 712.886 462.634 705.544 451.149C698.202 439.664 693.596 429.547 693.596 429.547C693.596 429.547 679.355 446.543 679.355 458.029C679.355 469.514 704.176 488.36 722.541 496.627C740.925 504.894 769.406 518.692 769.406 518.692Z" stroke="black" stroke-width="3.85409" stroke-miterlimit="10" stroke-linecap="round" stroke-linejoin="round"/>
<path d="M773.99 519.598L795.13 500.751L794.668 486.973C794.668 486.973 801.104 492.022 803.397 500.289C805.71 508.575 773.99 519.598 773.99 519.598Z" stroke="black" stroke-width="3.85409" stroke-miterlimit="10" stroke-linecap="round" stroke-linejoin="round"/>
<path d="M680.376 449.953C678.988 451.784 563.886 525.628 544.577 553.185C525.268 580.742 516.037 717.986 503.492 784.951C490.947 851.916 471.06 920.962 471.06 920.962" stroke="black" stroke-width="3.85409" stroke-miterlimit="10" stroke-linecap="round" stroke-linejoin="round"/>
<path d="M803.401 500.309C803.401 500.309 844.004 514.53 842.327 587.931C840.651 661.333 792.532 953.531 792.532 953.531" stroke="black" stroke-width="3.85409" stroke-miterlimit="10" stroke-linecap="round" stroke-linejoin="round"/>
<path d="M794.266 498.363L795.229 466.721" stroke="black" stroke-width="3.85409" stroke-miterlimit="10" stroke-linecap="round" stroke-linejoin="round"/>
<path d="M693.596 429.546C693.596 429.546 697.855 425.48 706.411 427.195" stroke="black" stroke-width="3.85409" stroke-miterlimit="10" stroke-linecap="round" stroke-linejoin="round"/>
<path d="M853.986 612.828C853.986 612.828 863.005 630.576 860.519 653.913" stroke="black" stroke-width="3.85409" stroke-miterlimit="10" stroke-linecap="round" stroke-linejoin="round"/>
<path d="M844.368 836.885C844.368 836.885 875.181 805.667 887.996 801.042C900.811 796.417 924.957 798.016 930.044 794.895C936.712 790.79 943.9 786.184 947.484 788.227C951.068 790.27 951.068 800.021 942.358 807.208C933.648 814.396 920.814 817.46 920.814 817.46C920.814 817.46 926.46 823.608 938.253 824.128C950.047 824.648 975.176 827.211 985.948 832.337C996.72 837.463 996.72 841.568 995.699 846.193C994.677 850.817 987.489 849.276 977.758 848.756C968.007 848.235 939.814 848.235 939.814 848.235C939.814 848.235 937.251 856.946 956.233 859.528C975.214 862.091 993.675 869.78 995.718 875.426C997.761 881.072 991.613 884.136 991.613 884.136L932.626 876.447C932.626 876.447 973.152 890.303 975.195 895.429C977.237 900.555 969.549 906.721 964.943 906.201C960.337 905.68 945.461 899.533 945.461 899.533C945.461 899.533 945.46 907.222 940.335 907.742C935.209 908.263 920.852 902.096 906.997 899.032C893.141 895.949 869.554 895.448 858.782 888.78C848.01 882.113 839.801 883.134 839.801 883.134" fill="white"/>
<path d="M844.368 836.885C844.368 836.885 875.181 805.667 887.996 801.042C900.811 796.417 924.957 798.016 930.044 794.895C936.712 790.79 943.9 786.184 947.484 788.227C951.068 790.27 951.068 800.021 942.358 807.208C933.648 814.396 920.814 817.46 920.814 817.46C920.814 817.46 926.46 823.608 938.253 824.128C950.047 824.648 975.176 827.211 985.948 832.337C996.72 837.463 996.72 841.568 995.699 846.193C994.677 850.817 987.489 849.276 977.758 848.756C968.007 848.235 939.814 848.235 939.814 848.235C939.814 848.235 937.251 856.946 956.233 859.528C975.214 862.091 993.675 869.78 995.718 875.426C997.761 881.072 991.613 884.136 991.613 884.136L932.626 876.447C932.626 876.447 973.152 890.303 975.195 895.429C977.237 900.555 969.549 906.721 964.943 906.201C960.337 905.68 945.461 899.533 945.461 899.533C945.461 899.533 945.46 907.222 940.335 907.742C935.209 908.263 920.852 902.096 906.997 899.032C893.141 895.949 869.554 895.448 858.782 888.78C848.01 882.113 839.801 883.134 839.801 883.134" stroke="black" stroke-width="3.85409" stroke-miterlimit="10" stroke-linecap="round" stroke-linejoin="round"/>
<path d="M844.077 822.587C844.077 825.016 848.124 845.192 844.887 862.15C841.649 879.108 834.384 900.093 834.384 900.093C834.384 900.093 586.489 936.437 564.694 918.67C542.899 900.903 515.304 761.327 512.914 704.055C509.234 615.873 535.711 560.066 544.595 554.401C553.479 548.754 622.833 573.093 645.437 644.952C668.042 716.812 658.002 805.398 658.002 805.398L844.077 822.587Z" fill="#45D62F" stroke="black" stroke-width="3.85409" stroke-linecap="round" stroke-linejoin="round"/>
<path d="M647.252 842.032C663.304 818.637 658.005 805.398 658.005 805.398C658.005 805.398 655.962 813.145 630.737 826.904C605.512 840.663 597.727 842.032 597.727 842.032" stroke="black" stroke-width="3.85409" stroke-miterlimit="10" stroke-linecap="round" stroke-linejoin="round"/>
<path d="M945.441 899.515L909.405 885.043" stroke="black" stroke-width="3.85409" stroke-miterlimit="10" stroke-linecap="round" stroke-linejoin="round"/>
<path d="M973.132 561.53L1222.38 561.01L1201.35 774.353C1201.35 774.353 959.797 783.063 959.797 781.541C959.797 780.019 973.132 561.53 973.132 561.53Z" fill="white" stroke="black" stroke-width="3.85409" stroke-miterlimit="10" stroke-linecap="round" stroke-linejoin="round"/>
<path d="M1222.38 561.028L1142.37 538.964L929.545 537.441L915.17 739.511L959.8 781.56L973.135 561.529L1222.38 561.028Z" fill="white" stroke="black" stroke-width="3.85409" stroke-miterlimit="10" stroke-linecap="round" stroke-linejoin="round"/>
<path d="M986.967 574.866L1209.56 573.344L1192.64 742.076L975.173 745.14L986.967 574.866Z" fill="white" stroke="black" stroke-width="3.85409" stroke-miterlimit="10" stroke-linecap="round" stroke-linejoin="round"/>
<path d="M1003.39 593.846H1185.98L1172.12 723.093L997.742 725.135L1003.39 593.846Z" fill="#45D62F" stroke="black" stroke-width="3.85409" stroke-linecap="round" stroke-linejoin="round"/>
<path d="M962.356 754.891L1201.87 750.266" stroke="black" stroke-width="3.85409" stroke-miterlimit="10" stroke-linecap="round" stroke-linejoin="round"/>
<path d="M1184.68 769.247C1187.65 769.247 1190.06 766.84 1190.06 763.871C1190.06 760.901 1187.65 758.494 1184.68 758.494C1181.71 758.494 1179.31 760.901 1179.31 763.871C1179.31 766.84 1181.71 769.247 1184.68 769.247Z" stroke="black" stroke-width="3.85409" stroke-miterlimit="10" stroke-linecap="round" stroke-linejoin="round"/>
<path d="M924.091 561.395C924.091 561.395 937.464 558.562 946.791 562.204C956.118 565.846 996.663 563.823 1004.76 560.99C1012.87 558.157 1011.66 548.426 1011.66 548.426C1011.66 548.426 1029.5 559.371 1044.09 562.204C1058.68 565.037 1061.53 561.799 1061.53 561.799C1061.53 561.799 1070.45 563.418 1073.28 562.204C1076.12 560.99 1078.54 558.562 1078.54 558.562C1078.54 558.562 1085.04 560.181 1087.06 557.348C1089.08 554.515 1089.49 548.021 1080.57 545.188C1071.64 542.355 1032.37 519.77 1027.9 517.342C1023.45 514.914 1003.95 505.857 997.858 505.453C991.768 505.048 948.795 506.262 940.297 508.285C931.779 510.309 897.324 530.177 897.324 530.177C897.324 530.177 894.472 545.786 901.91 552.954C909.329 560.123 924.091 561.395 924.091 561.395Z" fill="white" stroke="black" stroke-width="3.85409" stroke-miterlimit="10" stroke-linecap="round" stroke-linejoin="round"/>
<path d="M1061.53 561.802C1061.53 561.802 1040.75 547.908 1025.34 539.775" stroke="black" stroke-width="3.85409" stroke-miterlimit="10" stroke-linecap="round" stroke-linejoin="round"/>
<path d="M1011.65 548.426C1011.65 548.426 1008.22 543.416 990.014 543.416C971.803 543.416 965.058 543.705 965.058 543.705" stroke="black" stroke-width="3.85409" stroke-miterlimit="10" stroke-linecap="round" stroke-linejoin="round"/>
<path d="M1078.54 558.563L1049.62 540.564" stroke="black" stroke-width="3.85409" stroke-miterlimit="10" stroke-linecap="round" stroke-linejoin="round"/>
</svg>
