<svg width="1840" height="1380" viewBox="0 0 1840 1380" fill="none" xmlns="http://www.w3.org/2000/svg">
<path d="M586.278 842.339C585.835 842.339 572.056 837.213 565.601 837.656C559.145 838.1 552.689 837.81 552.689 837.81C552.689 837.81 537.581 825.94 529.68 818.752C521.76 811.564 465.317 749.995 458.572 746.758C451.828 743.539 429.108 727.545 429.108 727.545C429.108 727.545 434.388 736.197 434.099 735.754C433.81 735.311 420.321 734.29 412.979 739.126C405.636 743.963 398.757 753.926 398.757 753.926L415.619 762.424C415.619 762.424 405.347 774.006 401.686 782.658C398.025 791.311 390.683 823.859 390.683 823.859C390.683 823.859 442 812.855 463.987 817.114C485.975 821.373 513.108 832.357 516.037 834.862C518.966 837.348 518.234 838.234 518.099 840.142C517.945 842.05 520.893 851.724 523.957 856.426C527.04 861.108 528.351 864.192 532.744 865.965C537.138 867.718 542.418 869.78 542.418 869.78C542.418 869.78 547.544 875.638 553.846 877.257C560.147 878.876 561.033 879.319 565.581 879.011C570.129 878.722 582.443 876.949 582.443 876.949C582.443 876.949 593.003 889.706 597.975 888.685C602.966 887.663 606.916 879.454 603.833 869.915C600.788 860.376 586.278 842.339 586.278 842.339Z" fill="white"/>
<path d="M1236.85 834.958C1236.77 833.436 1115.58 819.33 1115.58 819.33L1041.5 844.035L1158.94 865.945L1236.85 834.958Z" fill="#45D62F" stroke="black" stroke-width="3.85409" stroke-linecap="round" stroke-linejoin="round"/>
<path d="M1236.85 834.959V866.755L1164.41 886.45L1041.5 879.57V844.035L1164.16 852.302L1236.85 834.959Z" fill="white" stroke="#212121" stroke-width="3.85409" stroke-miterlimit="10" stroke-linecap="round" stroke-linejoin="round"/>
<path d="M1164.16 852.303V885.756" stroke="#212121" stroke-width="3.85409" stroke-miterlimit="10" stroke-linecap="round" stroke-linejoin="round"/>
<path d="M1062.18 816.422H895.683V858.046H1062.18V816.422Z" fill="#FFEC00" stroke="black" stroke-width="3.85409" stroke-linecap="round" stroke-linejoin="round"/>
<path d="M1054.82 858.045H888.322V895.044H1054.82V858.045Z" fill="#45D62F" stroke="black" stroke-width="3.85409" stroke-linecap="round" stroke-linejoin="round"/>
<path d="M1115.88 477.82C1115.88 477.82 1084.03 472.463 1068.59 478.456C1053.16 484.449 1046.2 492.331 1033.27 543.417C1020.34 594.503 1105.17 527.654 1107.06 520.408C1108.95 513.162 1115.88 477.82 1115.88 477.82Z" fill="white" stroke="#212121" stroke-width="3.85409" stroke-miterlimit="10" stroke-linecap="round" stroke-linejoin="round"/>
<path d="M1412.56 535.187C1412.96 534.089 1438.05 449.858 1438.05 449.858C1438.05 449.858 1396.77 420.297 1376.14 420.297C1355.5 420.297 1338.21 450.417 1327.61 473.291C1317.01 496.165 1317.57 516.803 1317.57 516.803L1412.56 535.187Z" fill="white" stroke="#212121" stroke-width="3.85409" stroke-miterlimit="10" stroke-linecap="round" stroke-linejoin="round"/>
<path d="M1438.05 449.857L1488.42 485.97L1482.47 507.65L1422.79 504.682L1438.05 449.857Z" fill="white" stroke="#212121" stroke-width="3.85409" stroke-miterlimit="10" stroke-linecap="round" stroke-linejoin="round"/>
<path d="M1333.74 506.185C1333.74 506.185 1365.53 429.778 1361.06 425.866C1356.59 421.954 1316.99 401.874 1308.07 402.992C1299.15 404.11 1137.39 406.345 1129.59 413.032C1121.78 419.719 1105.59 503.391 1099.47 521.795C1093.34 540.198 1059.87 665.128 1062.66 674.05C1065.45 682.973 1190.94 702.494 1207.11 687.443C1223.28 672.393 1333.74 506.185 1333.74 506.185Z" fill="white" stroke="#212121" stroke-width="3.85409" stroke-miterlimit="10" stroke-linecap="round" stroke-linejoin="round"/>
<path d="M1412.56 535.188C1412.56 535.188 1276.2 472.906 1254.33 467.857C1232.44 462.809 1201.29 475.431 1187.82 509.096C1174.35 542.762 1051.47 827.252 1051.47 827.252L1327.38 861.803L1412.56 535.188Z" fill="white" stroke="#212121" stroke-width="3.85409" stroke-miterlimit="10" stroke-linecap="round" stroke-linejoin="round"/>
<path d="M1143.35 837.387C1143.35 837.387 1154.93 803.587 1170.79 757.107C1186.65 710.626 1233.15 538.849 1241.9 529.022C1250.65 519.174 1279.65 536.132 1297.68 542.704C1315.72 549.275 1398.87 585.908 1398.87 585.908" stroke="#212121" stroke-width="3.85409" stroke-miterlimit="10" stroke-linecap="round" stroke-linejoin="round"/>
<path d="M1342.78 806.111L1393.15 842.243L1387.21 863.903L1327.53 860.936L1342.78 806.111Z" fill="white" stroke="#212121" stroke-width="3.85409" stroke-miterlimit="10" stroke-linecap="round" stroke-linejoin="round"/>
<path d="M1326.82 368.497C1326.82 368.497 1296.51 392.393 1277.45 409.042C1258.39 425.692 1237.62 446.35 1232.64 446.793C1225.5 447.429 1216.42 435.154 1211.76 422.378C1207.07 409.601 1214.47 408.561 1214.47 408.561C1214.47 408.561 1260.61 375.955 1273.9 365.241C1287.2 354.526 1292.33 345.103 1292.33 345.103C1292.33 345.103 1302.81 341.442 1305.8 346.664C1308.8 351.886 1326.82 368.497 1326.82 368.497Z" fill="white" stroke="#212121" stroke-width="3.85409" stroke-miterlimit="10" stroke-linecap="round" stroke-linejoin="round"/>
<path d="M1396.7 333.273C1396.7 333.273 1394.5 346.165 1392.67 351.059C1390.84 355.954 1378.56 357.341 1360.45 360.907C1342.34 364.472 1338.94 371.062 1338.94 371.062C1338.94 371.062 1332.97 381.969 1322.58 377.633C1311.73 373.105 1318.15 361.253 1312.72 360.964C1307.49 360.695 1296.07 360.772 1287.7 360.887C1282.48 360.945 1278.41 356.397 1279.09 351.213L1281.94 329.033C1281.94 329.033 1302.98 326.066 1337.77 328.108C1378.78 330.517 1396.7 333.273 1396.7 333.273Z" fill="#FFEC00" stroke="black" stroke-width="3.85409" stroke-linecap="round" stroke-linejoin="round"/>
<path d="M1400.13 332.713C1399.78 334.178 1398.24 334.968 1396.52 334.544C1388.45 332.54 1281.21 331.229 1281.21 331.229L1282.25 321.055L1401.51 325.68L1400.13 332.713Z" fill="#FFEC00" stroke="black" stroke-width="3.85409" stroke-linecap="round" stroke-linejoin="round"/>
<path d="M1344.73 364.375C1344.73 364.375 1337.83 361.196 1331.02 351.406" stroke="#212121" stroke-width="3.85409" stroke-miterlimit="10" stroke-linecap="round" stroke-linejoin="round"/>
<path d="M1354.5 361.446C1354.5 361.446 1347.6 358.266 1340.8 348.477" stroke="#212121" stroke-width="3.85409" stroke-miterlimit="10" stroke-linecap="round" stroke-linejoin="round"/>
<path d="M1365.56 358.92C1365.56 358.92 1358.66 355.741 1351.86 345.951" stroke="#212121" stroke-width="3.85409" stroke-miterlimit="10" stroke-linecap="round" stroke-linejoin="round"/>
<path d="M1385.4 727.122C1385.4 727.122 1359.89 733.116 1335.43 739.59C1310.98 746.085 1283.21 755.412 1278.55 753.619C1271.86 751.018 1269.14 736.006 1270.63 722.478C1272.09 708.95 1279.18 711.282 1279.18 711.282C1279.18 711.282 1334.99 702.456 1351.64 698.737C1368.29 695.018 1377.08 688.832 1377.08 688.832C1377.08 688.832 1388.08 690.181 1388.47 696.193C1388.83 702.206 1385.4 727.122 1385.4 727.122Z" fill="white" stroke="#212121" stroke-width="3.85409" stroke-miterlimit="10" stroke-linecap="round" stroke-linejoin="round"/>
<path d="M1379.58 699.083C1379.62 700.817 1369.77 706.637 1372.01 715.424C1374.26 724.211 1385.79 733.769 1385.79 733.769C1385.79 733.769 1404.36 727.179 1412.05 725.907C1419.74 724.635 1447.32 724.577 1452.77 724.385C1458.22 724.192 1472.95 722.708 1478.52 716.792C1482.37 712.688 1495.57 696.096 1474.16 684.9C1453.1 673.877 1442.23 675.091 1429.38 672.393C1416.5 669.695 1405.02 661.871 1401.22 662.623C1397.43 663.374 1373.59 684.63 1372.37 689.428C1371.16 694.226 1379.58 699.083 1379.58 699.083Z" fill="#FFEC00" stroke="black" stroke-width="3.85409" stroke-linecap="round" stroke-linejoin="round"/>
<path d="M1395.46 668.982C1395.46 668.982 1412.75 677.885 1426.51 680.371C1440.26 682.857 1480.25 687.405 1482.99 708.834" stroke="#212121" stroke-width="3.85409" stroke-miterlimit="10" stroke-linecap="round" stroke-linejoin="round"/>
<path d="M1393.05 705.172C1393.05 705.172 1387.92 714.152 1397.96 724.23" stroke="#212121" stroke-width="3.85409" stroke-miterlimit="10" stroke-linecap="round" stroke-linejoin="round"/>
<path d="M1404.09 703.092C1404.09 703.092 1398.97 712.072 1409.01 722.15" stroke="#212121" stroke-width="3.85409" stroke-miterlimit="10" stroke-linecap="round" stroke-linejoin="round"/>
<path d="M1415.66 702.455C1415.66 702.455 1410.53 711.435 1420.57 721.514" stroke="#212121" stroke-width="3.85409" stroke-miterlimit="10" stroke-linecap="round" stroke-linejoin="round"/>
<path d="M1080.7 631.291C1080.7 631.291 1141.98 663.126 1161.94 675.632C1181.92 688.139 1203.51 704.557 1203.51 704.557C1203.51 704.557 1283.04 700.857 1304.08 694.672C1325.12 688.486 1337.76 688.389 1337.76 688.389C1337.76 688.389 1346.92 703.382 1354.26 718.394C1361.6 733.405 1363.53 747.839 1363.53 747.839C1363.53 747.839 1290.76 764.662 1252.84 767.36C1214.92 770.058 1199.85 770.173 1182.35 766.685C1164.85 763.197 1113.55 750.941 1089.37 740.285C1065.18 729.628 1022.77 696.811 1022.77 696.811C1022.77 696.811 1017.1 665.535 1029.07 652.778C1041.02 640.021 1080.7 631.291 1080.7 631.291Z" fill="#808080" stroke="#212121" stroke-width="3.85409" stroke-miterlimit="10"/>
<path d="M950.411 587.681C950.411 587.681 988.836 558.216 1023.47 540.275C1049.13 526.959 1109.97 498.381 1121.36 489.286C1132.75 480.171 1150.5 471.981 1152.77 468.801C1155.04 465.621 1213.78 399.601 1232.9 383.664C1252.01 367.728 1261.13 363.18 1261.13 363.18C1261.13 363.18 1277.89 367.65 1288.68 376.534C1299.48 385.437 1300.44 399.081 1300.44 399.081C1300.44 399.081 1272.65 422.957 1260.67 436.427C1252.26 445.889 1237.87 467.992 1237.87 467.992C1237.87 467.992 1211.76 504.625 1193.28 527.422C1174.8 550.219 1111.67 612.058 1072.45 641.638C1051.37 657.536 1012.21 680.853 1009.84 680.853C1007.47 680.853 950.411 587.681 950.411 587.681Z" fill="#808080" stroke="#212121" stroke-width="3.85409" stroke-miterlimit="10"/>
<path d="M835.599 779.518C835.599 779.518 898.421 821.933 915.302 829.39C932.183 836.848 949.064 843.13 971.456 832.146C993.829 821.143 1025.93 823.359 1044.11 826.654C1060.23 829.583 1074.17 818.483 1086.91 795.243C1093.05 784.028 1098.02 756.028 1093.71 744.639C1089.39 733.25 1019.82 690.2 978.991 698.062C938.157 705.905 835.599 779.518 835.599 779.518Z" fill="white" stroke="#212121" stroke-width="3.85409" stroke-miterlimit="10" stroke-linecap="round" stroke-linejoin="round"/>
<path d="M1035.2 707.293C1035.2 707.293 1008.05 696.617 985.29 704.268C962.532 711.937 937.23 723.769 930.735 727.72C924.241 731.67 919.597 740.496 914.259 746.528C908.921 752.559 903.121 760.923 893.832 765.567C884.544 770.211 840.203 785.531 828.139 786.225C816.076 786.919 803.069 786.687 803.069 786.687C803.069 786.687 794.243 828.928 792.855 839.604C791.468 850.28 788.442 871.169 778.229 881.383C768.016 891.596 760.597 891.133 751.771 888.339C742.945 885.545 742.945 886.72 738.994 882.77C735.044 878.82 726.218 868.375 726.218 868.375C726.218 868.375 678.408 874.869 667.019 878.357C655.65 881.845 618.496 886.027 612.233 887.645C605.97 889.264 598.994 889.264 598.994 889.264C598.994 889.264 603.407 885.545 600.613 876.97C597.819 868.375 583.212 840.529 583.212 840.529L650.986 837.272L694.865 818.464C694.865 818.464 685.114 796.882 682.089 791.775C679.063 786.668 677.676 784.587 674.419 781.099C671.162 777.611 667.925 771.117 667.694 767.86C667.462 764.604 667 760.441 667 760.441L691.84 748.705L690.144 733.019C690.144 733.019 702.689 736.16 706.08 730.129C709.472 724.097 710.416 700.683 711.881 693.919C713.326 687.156 747.608 659.406 767.65 654.82C787.691 650.233 799.272 654.569 830.895 644.202C862.518 633.815 860.591 632.62 874.35 623.929C888.109 615.238 951.104 571.07 951.104 571.07C951.104 571.07 1008.32 636.494 1013.14 642.275C1017.97 648.075 1026.89 657.479 1029.55 665.207C1032.23 672.895 1035.2 707.293 1035.2 707.293Z" fill="#E72A8B"/>
<path d="M711.514 661.312C711.341 661.89 713.037 672.99 708.971 678.906C704.905 684.822 699.952 684.263 699.952 684.263L710.878 692.337C710.878 692.337 715.619 726.696 704.211 734.058C700.376 736.544 695.79 737.565 690.934 737.661C688.544 737.7 693.824 746.391 689.681 749.802C683.9 754.562 672.068 764.736 655.881 741.631C648.596 731.244 645.031 731.264 648.962 724.346C650.716 721.262 674.168 714.036 674.168 714.036C674.168 714.036 664.976 717.928 658.347 717.466C651.737 716.984 643.702 706.867 637.901 697.502C632.12 688.136 620.789 647.225 620.789 647.225C620.789 647.225 642.449 641.945 654.127 640.654C665.824 639.363 680.547 647.861 689.565 645.472C698.603 643.063 711.514 661.312 711.514 661.312Z" fill="white"/>
<path d="M773.373 640.347C773.912 640.54 782.006 643.257 789.406 637.591C804.205 626.318 801.007 600.033 801.007 600.033C801.007 600.033 785.397 615.739 771.638 609.592C757.86 603.425 737.896 589.897 707.41 603.059C691.57 609.881 688.294 608.127 670.295 606.528C652.296 604.909 642.141 617.435 642.141 617.435C642.141 617.435 631.176 612.733 619.633 625.894C611.308 635.395 610.287 646.591 610.614 652.276C611.135 661.044 616.415 669.523 649.04 654.145C658.636 649.636 674.033 657.633 685.48 664.936C693.67 670.139 695.424 660.909 701.031 662.778C705.252 664.185 709.164 670.371 706.658 675.169C703.71 680.777 697.524 684.419 697.524 684.419C697.524 684.419 701.012 696.154 703.402 697.002C711.303 699.854 723.539 689.93 735.41 675.342C740.439 669.156 746.722 670.004 753.601 671.45C762.215 673.28 767.996 667.75 769.596 666.825C769.827 666.69 766.917 666.998 764.585 666.536C762.716 666.15 761.29 664.994 761.521 664.975C767.11 664.32 770.116 664.165 776.938 662.316C791.448 658.384 788.75 641.484 788.75 641.484C788.75 641.484 784.241 644.645 780.002 643.893C775.608 643.122 773.565 640.617 773.373 640.347Z" fill="black"/>
<path d="M620.422 654.51C620.422 654.51 639.692 713.67 655.918 716.696C673.435 719.952 688.196 701.125 688.196 701.125" stroke="black" stroke-width="3.85409" stroke-miterlimit="10" stroke-linecap="round" stroke-linejoin="round"/>
<path d="M649.046 702.377C651.095 701.799 652.158 699.213 651.421 696.601C650.685 693.989 648.427 692.341 646.378 692.918C644.33 693.496 643.266 696.082 644.003 698.694C644.74 701.306 646.998 702.955 649.046 702.377Z" stroke="black" stroke-width="3.85409" stroke-miterlimit="10" stroke-linecap="round" stroke-linejoin="round"/>
<path d="M641.602 686.017C638.962 686.248 637.498 685.747 637.806 684.379C638.268 682.298 638.538 674.513 638.538 674.513C638.538 674.513 637.748 669.387 633.297 668.481C627.766 667.363 626.61 669.406 626.61 669.406" stroke="black" stroke-width="3.85409" stroke-miterlimit="10" stroke-linecap="round" stroke-linejoin="round"/>
<path d="M649.948 670.351C649.948 670.351 653.417 665.052 662.435 668.713" stroke="black" stroke-width="3.85409" stroke-miterlimit="10" stroke-linecap="round" stroke-linejoin="round"/>
<path d="M670.734 728.488C670.734 728.488 686.189 728.238 680.697 721.262C675.205 714.286 653.719 716.888 649.229 724.615C644.739 732.343 648.728 736.717 653.468 740.205C658.209 743.693 669.732 755.409 669.732 755.409" stroke="#212121" stroke-width="3.85409" stroke-miterlimit="10" stroke-linecap="round" stroke-linejoin="round"/>
<path d="M682.953 724.751C682.953 724.751 686.942 722.766 688.445 727.738C689.948 732.729 691.683 748.434 691.683 748.434" stroke="#212121" stroke-width="3.85409" stroke-miterlimit="10" stroke-linecap="round" stroke-linejoin="round"/>
<path d="M552.995 838.369C552.995 838.369 571.321 836.635 580.321 841.491" stroke="black" stroke-width="3.85409" stroke-miterlimit="10" stroke-linecap="round" stroke-linejoin="round"/>
<path d="M596.219 872.961C596.219 872.961 571.649 878.723 564.384 879.07C557.119 879.417 554.383 869.165 550.568 862.94C546.752 856.716 547.118 850.838 550.221 849.798C553.323 848.757 563.016 860.859 563.016 860.859" stroke="black" stroke-width="3.85409" stroke-miterlimit="10" stroke-linecap="round" stroke-linejoin="round"/>
<path d="M548.332 858.527C548.332 858.527 542.956 850.472 540.547 853.594C538.119 856.716 539.853 864.308 543.322 869.839C546.771 875.37 556.464 878.838 559.914 878.491" stroke="black" stroke-width="3.85409" stroke-miterlimit="10" stroke-linecap="round" stroke-linejoin="round"/>
<path d="M538.118 859.47C538.118 859.47 526.71 840.797 521.873 839.409C517.036 838.022 518.077 845.287 520.486 850.124C522.914 854.961 526.363 861.185 530.16 864.307C533.956 867.429 543.302 869.837 543.302 869.837" stroke="black" stroke-width="3.85409" stroke-miterlimit="10" stroke-linecap="round" stroke-linejoin="round"/>
<path d="M576.254 862.246C576.254 862.246 550.682 837.29 542.261 831.047C533.839 824.803 472.656 759.245 458.029 747.451C441.804 734.348 426.522 726.543 426.522 726.543C426.522 726.543 438.99 742.46 441.187 747.124C443.365 751.807 442.44 755.853 442.44 755.853C442.44 755.853 435.271 751.171 421.859 759.592C408.447 768.013 400.025 784.239 397.52 793.585C395.034 802.95 390.352 824.475 390.352 824.475C390.352 824.475 432.766 812.624 467.087 817.307C501.407 821.99 521.892 839.391 521.892 839.391" stroke="black" stroke-width="3.85409" stroke-miterlimit="10" stroke-linecap="round" stroke-linejoin="round"/>
<path d="M442.418 755.873L550.236 849.778" stroke="black" stroke-width="3.85409" stroke-miterlimit="10" stroke-linecap="round" stroke-linejoin="round"/>
<path d="M433.379 735.909C433.379 735.909 421.22 735.292 412.163 740.283C403.125 745.274 398.134 754.64 398.134 754.64L416.229 763.369" stroke="black" stroke-width="3.85409" stroke-miterlimit="10" stroke-linecap="round" stroke-linejoin="round"/>
<path d="M814.724 743.809C813.722 753.078 802.14 781.868 800.483 797.091C798.826 812.315 791.542 839.853 790.154 854.806C788.767 869.76 774.044 889.127 765.873 890.283C757.703 891.44 744.252 887.142 739.492 883.288C726.427 872.651 684.86 802.988 682.991 796.205C681.122 789.441 678.328 783.371 673.645 779.864C668.981 776.356 665.243 762.347 667.806 759.784C670.369 757.221 698.87 746.121 698.87 746.121C697.849 744.772 700.739 749.436 709.796 760.69C714.961 767.087 718.41 774.584 721.378 781.213C724.365 787.822 737.931 805.378 737.931 805.378" stroke="black" stroke-width="3.85409" stroke-miterlimit="10" stroke-linecap="round" stroke-linejoin="round"/>
<path d="M712.784 699.449C711.782 699.449 711.782 715 717.409 727.912C723.036 740.823 731.65 755.045 735.272 764.314C738.895 773.583 738.915 803.702 739.57 815.939C740.225 828.176 742.21 842.744 742.21 842.744" stroke="black" stroke-width="3.85409" stroke-miterlimit="10" stroke-linecap="round" stroke-linejoin="round"/>
<path d="M693.15 819.697C693.15 819.697 657.211 836.482 651.699 837.542C646.188 838.582 586.912 839.122 585.081 839.372C583.251 839.642 581.401 840.163 586.392 846.984C591.383 853.806 600.902 875.774 601.076 880.823C601.23 885.467 601.346 888.686 597.665 889.225C593.984 889.765 581.921 876.911 581.921 876.911" stroke="black" stroke-width="3.85409" stroke-miterlimit="10" stroke-linecap="round" stroke-linejoin="round"/>
<path d="M597.681 889.205C597.681 889.205 647.244 884.753 662.468 879.762C677.672 874.771 707.06 872.42 712.822 870.59C718.584 868.759 723.575 867.969 723.575 867.969" stroke="black" stroke-width="3.85409" stroke-miterlimit="10" stroke-linecap="round" stroke-linejoin="round"/>
<path d="M781.925 654.78C781.925 654.78 836.557 646.551 855.905 635.432C875.252 624.313 950.561 570.684 950.561 570.684C950.561 570.684 997.176 622.656 1011.03 639.595C1024.89 656.534 1029.51 659.096 1031.05 673.472C1032.6 687.848 1037.22 708.39 1037.22 708.39C1037.22 708.39 1016.18 699.661 995.114 701.723C974.052 703.785 938.132 722.265 926.319 731.496C914.506 740.726 909.881 758.705 891.401 766.414C872.92 774.122 838.947 785.222 825.958 785.761C812.97 786.301 802.872 786.474 802.872 786.474" stroke="#212121" stroke-width="3.85409" stroke-miterlimit="10" stroke-linecap="round" stroke-linejoin="round"/>
<path d="M1094.81 947.786C1098.21 933.693 1097.6 921.459 1093.45 920.459C1089.3 919.459 1083.18 930.072 1079.78 944.165C1076.39 958.257 1077 970.492 1081.15 971.492C1085.3 972.492 1091.41 961.878 1094.81 947.786Z" stroke="#212121" stroke-width="3.85409" stroke-miterlimit="10" stroke-linecap="round" stroke-linejoin="round"/>
<path d="M1081.09 971.472C1081.09 971.472 1093.44 976.077 1104.58 975.615C1115.72 975.152 1120.38 972.801 1120.38 972.801C1120.38 972.801 1128.5 965.305 1130.93 955.188C1133.72 943.568 1129.13 936.477 1129.13 936.477C1129.13 936.477 1121.06 929.481 1112.98 925.03C1104.93 920.559 1093.39 920.463 1093.39 920.463" stroke="#212121" stroke-width="3.85409" stroke-miterlimit="10" stroke-linecap="round" stroke-linejoin="round"/>
<path d="M1104.72 921.465C1104.72 921.465 1100.38 917.264 1105.06 909.575C1109.75 901.886 1122.69 913.506 1125.22 920.096C1127.72 926.687 1124.49 930.946 1124.49 930.946" stroke="#212121" stroke-width="3.85409" stroke-miterlimit="10" stroke-linecap="round" stroke-linejoin="round"/>
<path d="M1090.24 955.785C1090.24 955.785 1039.81 947.152 1026.53 954.783C1013.26 962.414 1023.55 973.687 1008.28 976.019C993.023 978.351 957.18 975.364 957.18 986.637C957.18 997.91 991.404 1007.76 1012.04 1006.76C1035.57 1005.6 1055.73 1005.89 1060.37 991.281C1065.02 976.674 1075.79 975.691 1078.62 974.034C1085.93 969.737 1090.24 955.785 1090.24 955.785Z" fill="#45D62F"/>
<path d="M834.885 976.713C827.273 974.882 819.199 973.803 810.778 973.572C764.991 972.358 727.183 997.274 726.335 1029.21C726.219 1033.5 726.797 1037.7 727.973 1041.77C739.477 1036.51 755.703 1030.57 757.938 1037.7C760.424 1045.7 746.742 1055.74 738.706 1060.83C753.044 1077.19 778.481 1088.46 807.753 1089.23C809.68 1089.29 811.607 1089.27 813.514 1089.23C807.579 1080.68 796.961 1064.16 801.335 1061.29C805.883 1058.28 824.865 1077.79 833.498 1087.09C843.962 1085.01 853.558 1081.51 861.845 1076.88C851.959 1071.33 837.063 1061.77 839.741 1055.78C842.555 1049.5 870.15 1052.37 885.933 1054.55C889.787 1048.11 892.003 1041.06 892.196 1033.62C892.369 1027.24 891.02 1021.07 888.438 1015.27C875.276 1019.65 845.985 1028.88 843.307 1025.43C840.589 1021.92 866.489 1006.25 877.724 999.703C872.154 993.96 865.178 988.911 857.143 984.826C846.293 993.864 821.685 1013.56 817.137 1010.36C812.801 1007.28 827.023 987.177 834.885 976.713ZM793.743 996.908C790.043 1005.95 784.686 1012.31 781.757 1011.11C778.828 1009.92 779.463 1001.63 783.163 992.573C786.863 983.535 792.221 977.175 795.15 978.37C798.079 979.565 797.443 987.851 793.743 996.908Z" fill="#45D62F"/>
<path d="M728.439 1018.43C691.459 1014.08 654.634 1006.45 618.135 999.297C557.029 987.33 496.057 973.879 436.261 956.382C406.276 947.614 376.291 937.94 347.886 924.817C345.092 923.525 342.645 927.669 345.458 928.979C399.03 953.722 457.516 968.349 514.73 981.953C570.267 995.154 626.306 1006.39 682.556 1016.04C697.799 1018.66 713.081 1021.44 728.439 1023.25C731.503 1023.62 731.484 1018.8 728.439 1018.43Z" fill="#212121"/>
<path d="M727.455 1023.11C769.811 1032.4 812.881 1037.91 856.124 1041.02C858.609 1041.19 858.59 1037.34 856.124 1037.16C813.227 1034.08 770.505 1028.63 728.476 1019.41C726.048 1018.86 725.007 1022.57 727.455 1023.11Z" fill="white"/>
<path d="M787.675 1062.46C786.48 1048.07 779.466 1035.56 767.845 1026.99C765.841 1025.5 763.914 1028.86 765.899 1030.32C776.344 1038.01 782.742 1049.53 783.821 1062.46C784.013 1064.91 787.887 1064.93 787.675 1062.46Z" fill="white"/>
<path d="M802.243 1035.24C815.077 1032.4 826.62 1026.8 836.872 1018.59C838.818 1017.03 836.063 1014.31 834.136 1015.85C824.404 1023.64 813.362 1028.82 801.222 1031.5C798.794 1032.04 799.815 1035.76 802.243 1035.24Z" fill="white"/>
<path d="M485.66 991.108C491.422 973.206 497.165 955.284 502.907 937.382C503.466 935.628 513.005 913.506 503.601 917.013C500.71 918.092 501.963 922.736 504.873 921.657C500.383 923.314 498.957 933.952 497.704 937.844C495.835 943.645 493.985 949.464 492.116 955.265C488.416 966.789 484.716 978.312 481.016 989.836C480.053 992.784 484.716 994.056 485.66 991.108Z" fill="#212121"/>
<path d="M504.139 915.701C495.775 915.662 488.279 913.543 483.404 906.239C480.763 902.269 479.28 897.644 476.948 893.482C471.822 884.329 463.671 877.95 454.652 872.863C444.978 867.409 434.457 863.671 424.031 859.951C412.411 855.808 400.733 850.798 388.843 847.599C375.605 844.053 342.922 836.403 338.779 855.095C333.807 877.565 327.024 899.687 320.626 921.79C317.87 931.291 313.612 941.311 312.051 951.101C310.663 959.792 318.911 969.08 326.002 973.358C336.197 979.486 348.761 982.03 360.073 985.094C373.177 988.64 386.223 992.571 399.442 995.712C411.313 998.525 425.631 1001.76 437.887 999.45C444.169 998.275 447.406 994.96 452.764 991.858C462.264 986.366 472.516 988.524 481.978 992.879C484.772 994.17 487.219 990.008 484.406 988.717C477.237 985.421 469.683 982.916 461.686 983.822C457.562 984.284 453.881 985.633 450.316 987.695C442.165 992.417 437.174 995.365 427.519 995.095C403.566 994.401 379.767 985.499 356.835 979.236C347.104 976.576 336.023 974.225 327.467 968.598C323.343 965.881 316.29 958.616 316.386 953.298C316.521 946.09 321.223 936.841 323.227 929.98C329.857 907.241 336.987 884.483 342.382 861.416C342.845 859.412 342.922 857.003 343.577 855.095C345.89 848.312 354.022 848.447 360.304 848.524C369.322 848.62 378.803 849.912 387.533 852.243C400.444 855.673 413.221 861.146 425.804 865.694C437.694 869.972 449.834 874.52 460.125 882.055C466.176 886.487 470.685 891.806 474.038 898.473C476.254 902.886 478.008 907.646 481.187 911.481C486.891 918.36 495.486 920.461 504.081 920.499C507.241 920.519 507.241 915.701 504.139 915.701Z" fill="#212121"/>
<path d="M666.21 1104.03C666.711 1103.9 662.568 1097.77 657.885 1087.19C652.817 1075.74 650.716 1065.11 658.097 1063.31C662.336 1062.27 683.457 1083.63 692.957 1093.74C697.987 1089.87 702.111 1085.07 705.001 1079.39C708.374 1072.74 709.78 1065.49 709.453 1058C694.537 1052.41 668.888 1041.79 669.409 1034.93C669.91 1028.38 687.562 1027.07 698.893 1026.89C693.824 1018.9 687.041 1011.25 678.832 1004.42C666.807 1008.49 640.831 1016.6 638.268 1011.79C635.801 1007.18 652.99 997.698 662.298 993.016C660.641 992.071 658.964 991.146 657.23 990.279C631.118 977.021 603.388 974.824 583 982.378C587.644 990.684 594.909 1006.02 588.916 1011.86C583.559 1017.08 572.112 1004.12 564.5 994.018C561.533 997.043 559.028 1000.45 557.081 1004.29C546.193 1025.74 555.887 1053.14 578.568 1074.61C582.287 1078.13 582.634 1051.62 598.686 1060.65C613.717 1069.11 604.544 1093.28 604.833 1093.41C622.215 1101.84 648.905 1108.7 666.21 1104.03Z" fill="#45D62F"/>
<path d="M555.197 1007.06C480.639 974.786 410.398 936.418 340.736 894.736C338.076 893.137 335.648 897.299 338.308 898.899C407.97 940.581 478.192 978.948 552.768 1011.23C555.582 1012.44 558.029 1008.3 555.197 1007.06Z" fill="#212121"/>
<path d="M683.134 1063.93C644.035 1037.97 597.053 1030 556.258 1007.83C554.08 1006.64 552.114 1009.97 554.311 1011.17C595.107 1033.31 642.088 1041.31 681.188 1067.26C683.25 1068.63 685.196 1065.3 683.134 1063.93Z" fill="white"/>
<path d="M615.011 1035.32C631.044 1035.41 645.863 1030.57 660.74 1025.06C663.052 1024.22 662.05 1020.48 659.718 1021.34C645.208 1026.72 630.678 1031.56 615.011 1031.46C612.525 1031.42 612.525 1035.3 615.011 1035.32Z" fill="white"/>
<path d="M583.044 1051.33C588.324 1037.99 582.466 1020.67 569.458 1014.33C567.242 1013.25 565.276 1016.56 567.512 1017.66C579.093 1023.33 584.007 1038.47 579.325 1050.31C578.4 1052.6 582.138 1053.6 583.044 1051.33Z" fill="white"/>
</svg>
